<?xml version="1.0" encoding="utf-8"?>
<!-- Generator: Adobe Illustrator 24.0.3, SVG Export Plug-In . SVG Version: 6.00 Build 0)  -->
<svg version="1.1" id="Layer_1" xmlns="http://www.w3.org/2000/svg" xmlns:xlink="http://www.w3.org/1999/xlink" x="0px" y="0px"
	 viewBox="0 0 1750 1000" style="enable-background:new 0 0 1750 1000;" xml:space="preserve">
<style type="text/css">
	.st0{fill:url(#SVGID_1_);}
	.st1{fill:#FFFFFF;}
	.st2{fill:#E6E7E8;}
	.st3{fill:#D1D3D4;}
</style>
<g>
	<linearGradient id="SVGID_1_" gradientUnits="userSpaceOnUse" x1="1.0977" y1="499.9983" x2="1748.9023" y2="499.9983">
		<stop  offset="0" style="stop-color:#CE1DF7"/>
		<stop  offset="1" style="stop-color:#0C7FFF"/>
	</linearGradient>
	<rect x="1.1" y="0" class="st0" width="1747.8" height="1000"/>
	<g>
		<g>
			<g>
				<path class="st1" d="M500.5,0H375.6v125.2h0.4c0-0.1,0-0.3,0-0.4C376.1,55.8,431.8,0,500.5,0z"/>
				<path class="st2" d="M500.5,0c-68.7,0-124.4,55.8-124.4,124.7c0,0.1,0,0.3,0,0.4h124.4V0z"/>
			</g>
			<g>
				<path class="st1" d="M750.2,0H625.3v125.2h0.4c0-0.1,0-0.3,0-0.4C625.8,55.8,681.5,0,750.2,0z"/>
				<path class="st3" d="M750.2,0c-68.7,0-124.4,55.8-124.4,124.7c0,0.1,0,0.3,0,0.4h124.4V0z"/>
			</g>
			<g>
				<path class="st3" d="M500.5,250.3V125.2H375.6v0.4c0.1,0,0.3,0,0.4,0C444.8,125.6,500.5,181.5,500.5,250.3z"/>
				<path class="st1" d="M500.5,250.3c0-68.9-55.7-124.7-124.4-124.7c-0.1,0-0.3,0-0.4,0v124.7H500.5z"/>
			</g>
			<g>
				<path class="st2" d="M750.2,249.9V124.7H625.3v0.5c0.2,0,0.3,0,0.4,0C694.5,125.2,750.2,181,750.2,249.9z"/>
				<path class="st1" d="M750.2,249.9c0-68.9-55.7-124.7-124.4-124.7c-0.1,0-0.3,0-0.4,0v124.7H750.2z"/>
			</g>
			<g>
				<path class="st3" d="M500.5,250.3h124.8V125.2h-0.4c0,0.1,0,0.3,0,0.4C624.9,194.5,569.2,250.3,500.5,250.3z"/>
				<path class="st1" d="M500.5,250.3c68.7,0,124.4-55.8,124.4-124.7c0-0.1,0-0.3,0-0.4l-124.4,0V250.3z"/>
			</g>
			<g>
				<path class="st2" d="M500.5,0v125.2h124.8v-0.5c-0.1,0-0.3,0-0.4,0C556.2,124.7,500.5,68.9,500.5,0z"/>
				<path class="st1" d="M500.5,0c0,68.9,55.7,124.7,124.4,124.7c0.1,0,0.3,0,0.4,0l0-124.7H500.5z"/>
			</g>
			<g>
				<path class="st1" d="M250.8,250.3h124.8V125.2h-0.4c0,0.1,0,0.3,0,0.4C375.2,194.5,319.5,250.3,250.8,250.3z"/>
				<path class="st2" d="M250.8,250.3c68.7,0,124.4-55.8,124.4-124.7c0-0.1,0-0.3,0-0.4H250.8V250.3z"/>
			</g>
			<g>
				<path class="st1" d="M1.1,249.9h124.8V124.7h-0.4c0,0.1,0,0.3,0,0.4C125.5,194,69.8,249.9,1.1,249.9z"/>
				<path class="st3" d="M1.1,249.9c68.7,0,124.4-55.8,124.4-124.7c0-0.1,0-0.3,0-0.4H1.1V249.9z"/>
			</g>
			<g>
				<path class="st3" d="M250.8,0v125.2h124.8v-0.5c-0.1,0-0.3,0-0.4,0C306.5,124.7,250.8,68.9,250.8,0z"/>
				<path class="st1" d="M250.8,0c0,68.9,55.7,124.7,124.4,124.7c0.1,0,0.3,0,0.4,0V0H250.8z"/>
			</g>
			<g>
				<path class="st2" d="M1.1,0v125.2h124.8v-0.5c-0.1,0-0.3,0-0.4,0C56.8,124.7,1.1,68.9,1.1,0z"/>
				<path class="st1" d="M1.1,0c0,68.9,55.7,124.7,124.4,124.7c0.1,0,0.3,0,0.4,0V0H1.1z"/>
			</g>
			<g>
				<path class="st3" d="M250.8,0H125.9v125.2h0.4c0-0.1,0-0.3,0-0.4C126.4,55.8,182.1,0,250.8,0z"/>
				<path class="st1" d="M250.8,0c-68.7,0-124.4,55.8-124.4,124.7c0,0.1,0,0.3,0,0.4l124.4,0V0z"/>
			</g>
			<g>
				<path class="st2" d="M250.8,250.3V125.2H125.9v0.4c0.1,0,0.3,0,0.4,0C195.1,125.6,250.8,181.5,250.8,250.3z"/>
				<path class="st1" d="M250.8,250.3c0-68.9-55.7-124.7-124.4-124.7c-0.1,0-0.3,0-0.4,0v124.7H250.8z"/>
			</g>
			<g>
				<path class="st1" d="M500.5,249.9H375.6v125.2h0.4c0-0.1,0-0.3,0-0.4C376.1,305.7,431.8,249.9,500.5,249.9z"/>
				<path class="st2" d="M500.5,249.9c-68.7,0-124.4,55.8-124.4,124.7c0,0.1,0,0.3,0,0.4h124.4V249.9z"/>
			</g>
			<g>
				<path class="st1" d="M750.2,249.9H625.3v125.2h0.4c0-0.1,0-0.3,0-0.4C625.8,305.7,681.5,249.9,750.2,249.9z"/>
				<path class="st3" d="M750.2,249.9c-68.7,0-124.4,55.8-124.4,124.7c0,0.1,0,0.3,0,0.4h124.4V249.9z"/>
			</g>
			<g>
				<path class="st3" d="M500.5,500.2V375.1H375.6v0.4c0.1,0,0.3,0,0.4,0C444.8,375.5,500.5,431.3,500.5,500.2z"/>
				<path class="st1" d="M500.5,500.2c0-68.9-55.7-124.7-124.4-124.7c-0.1,0-0.3,0-0.4,0v124.7H500.5z"/>
			</g>
			<g>
				<path class="st2" d="M750.2,499.8V374.6H625.3v0.5c0.1,0,0.3,0,0.4,0C694.5,375.1,750.2,430.9,750.2,499.8z"/>
				<path class="st1" d="M750.2,499.8c0-68.9-55.7-124.7-124.4-124.7c-0.1,0-0.3,0-0.4,0v124.7H750.2z"/>
			</g>
			<g>
				<path class="st3" d="M500.5,500.2h124.8V375.1h-0.4c0,0.1,0,0.3,0,0.4C624.9,444.4,569.2,500.2,500.5,500.2z"/>
				<path class="st1" d="M500.5,500.2c68.7,0,124.4-55.8,124.4-124.7c0-0.1,0-0.3,0-0.4l-124.4,0V500.2z"/>
			</g>
			<g>
				<path class="st2" d="M500.5,249.9v125.2h124.8v-0.5c-0.1,0-0.3,0-0.4,0C556.2,374.6,500.5,318.8,500.5,249.9z"/>
				<path class="st1" d="M500.5,249.9c0,68.9,55.7,124.7,124.4,124.7c0.1,0,0.3,0,0.4,0V249.9H500.5z"/>
			</g>
			<g>
				<path class="st1" d="M250.8,500.2h124.8V375.1h-0.4c0,0.1,0,0.3,0,0.4C375.2,444.4,319.5,500.2,250.8,500.2z"/>
				<path class="st2" d="M250.8,500.2c68.7,0,124.4-55.8,124.4-124.7c0-0.1,0-0.3,0-0.4H250.8V500.2z"/>
			</g>
			<g>
				<path class="st1" d="M1.1,499.8h124.8V374.6h-0.4c0,0.1,0,0.3,0,0.4C125.5,443.9,69.8,499.8,1.1,499.8z"/>
				<path class="st3" d="M1.1,499.8c68.7,0,124.4-55.8,124.4-124.7c0-0.1,0-0.3,0-0.4H1.1V499.8z"/>
			</g>
			<g>
				<path class="st3" d="M250.8,249.9v125.2h124.8v-0.5c-0.2,0-0.3,0-0.4,0C306.5,374.6,250.8,318.8,250.8,249.9z"/>
				<path class="st1" d="M250.8,249.9c0,68.9,55.7,124.7,124.4,124.7c0.1,0,0.3,0,0.4,0V249.9H250.8z"/>
			</g>
			<g>
				<path class="st2" d="M1.1,249.9v125.2h124.8v-0.5c-0.1,0-0.3,0-0.4,0C56.8,374.6,1.1,318.8,1.1,249.9z"/>
				<path class="st1" d="M1.1,249.9c0,68.9,55.7,124.7,124.4,124.7c0.1,0,0.3,0,0.4,0V249.9H1.1z"/>
			</g>
			<g>
				<path class="st3" d="M250.8,249.9H125.9v125.2h0.4c0-0.1,0-0.3,0-0.4C126.4,305.7,182.1,249.9,250.8,249.9z"/>
				<path class="st1" d="M250.8,249.9c-68.7,0-124.4,55.8-124.4,124.7c0,0.1,0,0.3,0,0.4l124.4,0V249.9z"/>
			</g>
			<g>
				<path class="st2" d="M250.8,500.2V375.1H125.9v0.4c0.1,0,0.3,0,0.4,0C195.1,375.5,250.8,431.3,250.8,500.2z"/>
				<path class="st1" d="M250.8,500.2c0-68.9-55.7-124.7-124.4-124.7c-0.1,0-0.3,0-0.4,0v124.7H250.8z"/>
			</g>
			<g>
				<path class="st1" d="M1249.5,0h-124.8v125.2h0.4c0-0.1,0-0.3,0-0.4C1125.1,55.8,1180.8,0,1249.5,0z"/>
				<path class="st2" d="M1249.5,0c-68.7,0-124.4,55.8-124.4,124.7c0,0.1,0,0.3,0,0.4h124.4V0z"/>
			</g>
			<g>
				<path class="st1" d="M1499.2,0h-124.8v125.2h0.4c0-0.1,0-0.3,0-0.4C1374.8,55.8,1430.5,0,1499.2,0z"/>
				<path class="st3" d="M1499.2,0c-68.7,0-124.4,55.8-124.4,124.7c0,0.1,0,0.3,0,0.4h124.4V0z"/>
			</g>
			<g>
				<path class="st3" d="M1249.5,250.3V125.2h-124.8v0.4c0.1,0,0.3,0,0.4,0C1193.8,125.6,1249.5,181.5,1249.5,250.3z"/>
				<path class="st1" d="M1249.5,250.3c0-68.9-55.7-124.7-124.4-124.7c-0.1,0-0.3,0-0.4,0v124.7H1249.5z"/>
			</g>
			<g>
				<path class="st2" d="M1499.2,249.9V124.7h-124.8v0.5c0.1,0,0.3,0,0.4,0C1443.5,125.2,1499.2,181,1499.2,249.9z"/>
				<path class="st1" d="M1499.2,249.9c0-68.9-55.7-124.7-124.4-124.7c-0.1,0-0.3,0-0.4,0v124.7H1499.2z"/>
			</g>
			<g>
				<path class="st3" d="M1249.5,250.3h124.8V125.2h-0.4c0,0.1,0,0.3,0,0.4C1373.9,194.5,1318.2,250.3,1249.5,250.3z"/>
				<path class="st1" d="M1249.5,250.3c68.7,0,124.4-55.8,124.4-124.7c0-0.1,0-0.3,0-0.4l-124.4,0V250.3z"/>
			</g>
			<g>
				<path class="st2" d="M1249.5,0v125.2h124.8v-0.5c-0.1,0-0.3,0-0.4,0C1305.2,124.7,1249.5,68.9,1249.5,0z"/>
				<path class="st1" d="M1249.5,0c0,68.9,55.7,124.7,124.4,124.7c0.1,0,0.3,0,0.4,0V0H1249.5z"/>
			</g>
			<g>
				<path class="st1" d="M999.8,250.3h124.8V125.2h-0.4c0,0.1,0,0.3,0,0.4C1124.2,194.5,1068.5,250.3,999.8,250.3z"/>
				<path class="st2" d="M999.8,250.3c68.7,0,124.4-55.8,124.4-124.7c0-0.1,0-0.3,0-0.4H999.8V250.3z"/>
			</g>
			<g>
				<path class="st1" d="M750.2,249.9H875V124.7h-0.4c0,0.1,0,0.3,0,0.4C874.6,194,818.9,249.9,750.2,249.9z"/>
				<path class="st3" d="M750.2,249.9c68.7,0,124.4-55.8,124.4-124.7c0-0.1,0-0.3,0-0.4H750.2V249.9z"/>
			</g>
			<g>
				<path class="st3" d="M999.8,0v125.2h124.8v-0.5c-0.1,0-0.3,0-0.4,0C1055.5,124.7,999.8,68.9,999.8,0z"/>
				<path class="st1" d="M999.8,0c0,68.9,55.7,124.7,124.4,124.7c0.1,0,0.3,0,0.4,0V0H999.8z"/>
			</g>
			<g>
				<path class="st2" d="M750.2,0v125.2H875v-0.5c-0.1,0-0.3,0-0.4,0C805.9,124.7,750.2,68.9,750.2,0z"/>
				<path class="st1" d="M750.2,0c0,68.9,55.7,124.7,124.4,124.7c0.1,0,0.3,0,0.4,0V0H750.2z"/>
			</g>
			<g>
				<path class="st3" d="M999.8,0H875v125.2h0.4c0-0.1,0-0.3,0-0.4C875.4,55.8,931.1,0,999.8,0z"/>
				<path class="st1" d="M999.8,0c-68.7,0-124.4,55.8-124.4,124.7c0,0.1,0,0.3,0,0.4l124.4,0V0z"/>
			</g>
			<g>
				<path class="st2" d="M999.8,250.3V125.2H875v0.4c0.1,0,0.3,0,0.4,0C944.1,125.6,999.8,181.5,999.8,250.3z"/>
				<path class="st1" d="M999.8,250.3c0-68.9-55.7-124.7-124.4-124.7c-0.1,0-0.3,0-0.4,0v124.7H999.8z"/>
			</g>
			<g>
				<path class="st1" d="M1249.5,249.9h-124.8v125.2h0.4c0-0.1,0-0.3,0-0.4C1125.1,305.7,1180.8,249.9,1249.5,249.9z"/>
				<path class="st2" d="M1249.5,249.9c-68.7,0-124.4,55.8-124.4,124.7c0,0.1,0,0.3,0,0.4h124.4V249.9z"/>
			</g>
			<g>
				<path class="st1" d="M1499.2,249.9h-124.8v125.2h0.4c0-0.1,0-0.3,0-0.4C1374.8,305.7,1430.5,249.9,1499.2,249.9z"/>
				<path class="st3" d="M1499.2,249.9c-68.7,0-124.4,55.8-124.4,124.7c0,0.1,0,0.3,0,0.4h124.4V249.9z"/>
			</g>
			<g>
				<path class="st3" d="M1249.5,500.2V375.1h-124.8v0.4c0.1,0,0.3,0,0.4,0C1193.8,375.5,1249.5,431.3,1249.5,500.2z"/>
				<path class="st1" d="M1249.5,500.2c0-68.9-55.7-124.7-124.4-124.7c-0.1,0-0.3,0-0.4,0v124.7H1249.5z"/>
			</g>
			<g>
				<path class="st2" d="M1499.2,499.8V374.6h-124.8v0.5c0.2,0,0.3,0,0.4,0C1443.5,375.1,1499.2,430.9,1499.2,499.8z"/>
				<path class="st1" d="M1499.2,499.8c0-68.9-55.7-124.7-124.4-124.7c-0.1,0-0.3,0-0.4,0v124.7H1499.2z"/>
			</g>
			<g>
				<path class="st3" d="M1249.5,500.2h124.8V375.1h-0.4c0,0.1,0,0.3,0,0.4C1373.9,444.4,1318.2,500.2,1249.5,500.2z"/>
				<path class="st1" d="M1249.5,500.2c68.7,0,124.4-55.8,124.4-124.7c0-0.1,0-0.3,0-0.4l-124.4,0V500.2z"/>
			</g>
			<g>
				<path class="st2" d="M1249.5,249.9v125.2h124.8v-0.5c-0.1,0-0.3,0-0.4,0C1305.2,374.6,1249.5,318.8,1249.5,249.9z"/>
				<path class="st1" d="M1249.5,249.9c0,68.9,55.7,124.7,124.4,124.7c0.1,0,0.3,0,0.4,0l0-124.7H1249.5z"/>
			</g>
			<g>
				<path class="st1" d="M999.8,500.2h124.8V375.1h-0.4c0,0.1,0,0.3,0,0.4C1124.2,444.4,1068.5,500.2,999.8,500.2z"/>
				<path class="st2" d="M999.8,500.2c68.7,0,124.4-55.8,124.4-124.7c0-0.1,0-0.3,0-0.4H999.8V500.2z"/>
			</g>
			<g>
				<path class="st1" d="M750.2,499.8H875V374.6h-0.4c0,0.1,0,0.3,0,0.4C874.6,443.9,818.9,499.8,750.2,499.8z"/>
				<path class="st3" d="M750.2,499.8c68.7,0,124.4-55.8,124.4-124.7c0-0.1,0-0.3,0-0.4H750.2V499.8z"/>
			</g>
			<g>
				<path class="st3" d="M999.8,249.9v125.2h124.8v-0.5c-0.1,0-0.3,0-0.4,0C1055.5,374.6,999.8,318.8,999.8,249.9z"/>
				<path class="st1" d="M999.8,249.9c0,68.9,55.7,124.7,124.4,124.7c0.1,0,0.3,0,0.4,0V249.9H999.8z"/>
			</g>
			<g>
				<path class="st2" d="M750.2,249.9v125.2H875v-0.5c-0.1,0-0.3,0-0.4,0C805.9,374.6,750.2,318.8,750.2,249.9z"/>
				<path class="st1" d="M750.2,249.9c0,68.9,55.7,124.7,124.4,124.7c0.1,0,0.3,0,0.4,0V249.9H750.2z"/>
			</g>
			<g>
				<path class="st3" d="M999.8,249.9H875v125.2h0.4c0-0.1,0-0.3,0-0.4C875.4,305.7,931.1,249.9,999.8,249.9z"/>
				<path class="st1" d="M999.8,249.9c-68.7,0-124.4,55.8-124.4,124.7c0,0.1,0,0.3,0,0.4l124.4,0V249.9z"/>
			</g>
			<g>
				<path class="st2" d="M999.8,500.2V375.1H875v0.4c0.1,0,0.3,0,0.4,0C944.1,375.5,999.8,431.3,999.8,500.2z"/>
				<path class="st1" d="M999.8,500.2c0-68.9-55.7-124.7-124.4-124.7c-0.1,0-0.3,0-0.4,0v124.7H999.8z"/>
			</g>
			<g>
				<path class="st1" d="M1624.1,0h-124.8v125.2h0.4c0-0.1,0-0.3,0-0.4C1499.7,55.8,1555.4,0,1624.1,0z"/>
				<path class="st2" d="M1624.1,0c-68.7,0-124.4,55.8-124.4,124.7c0,0.1,0,0.3,0,0.4h124.4V0z"/>
			</g>
			<g>
				<path class="st3" d="M1624.1,250.3V125.2h-124.8v0.4c0.1,0,0.3,0,0.4,0C1568.4,125.6,1624.1,181.5,1624.1,250.3z"/>
				<path class="st1" d="M1624.1,250.3c0-68.9-55.7-124.7-124.4-124.7c-0.1,0-0.3,0-0.4,0v124.7H1624.1z"/>
			</g>
			<g>
				<path class="st3" d="M1624.1,250.3h124.8V125.2h-0.4c0,0.1,0,0.3,0,0.4C1748.5,194.5,1692.8,250.3,1624.1,250.3z"/>
				<path class="st1" d="M1624.1,250.3c68.7,0,124.4-55.8,124.4-124.7c0-0.1,0-0.3,0-0.4l-124.4,0V250.3z"/>
			</g>
			<g>
				<path class="st2" d="M1624.1,0v125.2h124.8v-0.5c-0.1,0-0.3,0-0.4,0C1679.8,124.7,1624.1,68.9,1624.1,0z"/>
				<path class="st1" d="M1624.1,0c0,68.9,55.7,124.7,124.4,124.7c0.1,0,0.3,0,0.4,0l0-124.7H1624.1z"/>
			</g>
			<g>
				<path class="st1" d="M1624.1,249.9h-124.8v125.2h0.4c0-0.1,0-0.3,0-0.4C1499.7,305.7,1555.4,249.9,1624.1,249.9z"/>
				<path class="st2" d="M1624.1,249.9c-68.7,0-124.4,55.8-124.4,124.7c0,0.1,0,0.3,0,0.4h124.4V249.9z"/>
			</g>
			<g>
				<path class="st3" d="M1624.1,500.2V375.1h-124.8v0.4c0.2,0,0.3,0,0.4,0C1568.4,375.5,1624.1,431.3,1624.1,500.2z"/>
				<path class="st1" d="M1624.1,500.2c0-68.9-55.7-124.7-124.4-124.7c-0.1,0-0.3,0-0.4,0v124.7H1624.1z"/>
			</g>
			<g>
				<path class="st3" d="M1624.1,500.2h124.8V375.1h-0.4c0,0.1,0,0.3,0,0.4C1748.5,444.4,1692.8,500.2,1624.1,500.2z"/>
				<path class="st1" d="M1624.1,500.2c68.7,0,124.4-55.8,124.4-124.7c0-0.1,0-0.3,0-0.4l-124.4,0V500.2z"/>
			</g>
			<g>
				<path class="st2" d="M1624.1,249.9v125.2h124.8v-0.5c-0.1,0-0.3,0-0.4,0C1679.8,374.6,1624.1,318.8,1624.1,249.9z"/>
				<path class="st1" d="M1624.1,249.9c0,68.9,55.7,124.7,124.4,124.7c0.1,0,0.3,0,0.4,0V249.9H1624.1z"/>
			</g>
		</g>
		<g>
			<g>
				<path class="st1" d="M500.5,499.8H375.6v125.2h0.4c0-0.1,0-0.3,0-0.4C376.1,555.6,431.8,499.8,500.5,499.8z"/>
				<path class="st2" d="M500.5,499.8c-68.7,0-124.4,55.8-124.4,124.7c0,0.1,0,0.3,0,0.4h124.4V499.8z"/>
			</g>
			<g>
				<path class="st1" d="M750.2,499.8H625.3v125.2h0.4c0-0.1,0-0.3,0-0.4C625.8,555.6,681.5,499.8,750.2,499.8z"/>
				<path class="st3" d="M750.2,499.8c-68.7,0-124.4,55.8-124.4,124.7c0,0.1,0,0.3,0,0.4h124.4V499.8z"/>
			</g>
			<g>
				<path class="st3" d="M500.5,750.1V624.9H375.6v0.4c0.1,0,0.3,0,0.4,0C444.8,625.4,500.5,681.2,500.5,750.1z"/>
				<path class="st1" d="M500.5,750.1c0-68.9-55.7-124.7-124.4-124.7c-0.1,0-0.3,0-0.4,0v124.7H500.5z"/>
			</g>
			<g>
				<path class="st2" d="M750.2,749.7V624.5H625.3v0.5c0.1,0,0.3,0,0.4,0C694.5,624.9,750.2,680.8,750.2,749.7z"/>
				<path class="st1" d="M750.2,749.7c0-68.9-55.7-124.7-124.4-124.7c-0.1,0-0.3,0-0.4,0v124.7H750.2z"/>
			</g>
			<g>
				<path class="st3" d="M500.5,750.1h124.8V624.9h-0.4c0,0.1,0,0.3,0,0.4C624.9,694.3,569.2,750.1,500.5,750.1z"/>
				<path class="st1" d="M500.5,750.1c68.7,0,124.4-55.8,124.4-124.7c0-0.1,0-0.3,0-0.4H500.5V750.1z"/>
			</g>
			<g>
				<path class="st2" d="M500.5,499.8v125.2h124.8v-0.5c-0.1,0-0.3,0-0.4,0C556.2,624.5,500.5,568.7,500.5,499.8z"/>
				<path class="st1" d="M500.5,499.8c0,68.9,55.7,124.7,124.4,124.7c0.1,0,0.3,0,0.4,0V499.8H500.5z"/>
			</g>
			<g>
				<path class="st1" d="M250.8,750.1h124.8V624.9h-0.4c0,0.1,0,0.3,0,0.4C375.2,694.3,319.5,750.1,250.8,750.1z"/>
				<path class="st2" d="M250.8,750.1c68.7,0,124.4-55.8,124.4-124.7c0-0.1,0-0.3,0-0.4H250.8V750.1z"/>
			</g>
			<g>
				<path class="st1" d="M1.1,749.7h124.8V624.5h-0.4c0,0.1,0,0.3,0,0.4C125.5,693.8,69.8,749.7,1.1,749.7z"/>
				<path class="st3" d="M1.1,749.7c68.7,0,124.4-55.8,124.4-124.7c0-0.2,0-0.3,0-0.4H1.1V749.7z"/>
			</g>
			<g>
				<path class="st3" d="M250.8,499.8v125.2h124.8v-0.5c-0.2,0-0.3,0-0.4,0C306.5,624.5,250.8,568.7,250.8,499.8z"/>
				<path class="st1" d="M250.8,499.8c0,68.9,55.7,124.7,124.4,124.7c0.1,0,0.3,0,0.4,0V499.8H250.8z"/>
			</g>
			<g>
				<path class="st2" d="M1.1,499.8v125.2h124.8v-0.4c-0.1,0-0.3,0-0.4,0C56.8,624.5,1.1,568.7,1.1,499.8z"/>
				<path class="st1" d="M1.1,499.8c0,68.9,55.7,124.7,124.4,124.7c0.1,0,0.3,0,0.4,0V499.8H1.1z"/>
			</g>
			<g>
				<path class="st3" d="M250.8,499.8H125.9v125.2h0.4c0-0.1,0-0.3,0-0.4C126.4,555.6,182.1,499.8,250.8,499.8z"/>
				<path class="st1" d="M250.8,499.8c-68.7,0-124.4,55.8-124.4,124.7c0,0.2,0,0.3,0,0.4l124.4,0V499.8z"/>
			</g>
			<g>
				<path class="st2" d="M250.8,750.1V624.9H125.9v0.4c0.1,0,0.3,0,0.4,0C195.1,625.4,250.8,681.2,250.8,750.1z"/>
				<path class="st1" d="M250.8,750.1c0-68.9-55.7-124.7-124.4-124.7c-0.1,0-0.3,0-0.4,0v124.7H250.8z"/>
			</g>
			<g>
				<path class="st1" d="M500.5,749.7H375.6v125.2h0.4c0-0.2,0-0.3,0-0.4C376.1,805.5,431.8,749.7,500.5,749.7z"/>
				<path class="st2" d="M500.5,749.7c-68.7,0-124.4,55.8-124.4,124.7c0,0.1,0,0.3,0,0.4h124.4V749.7z"/>
			</g>
			<g>
				<path class="st1" d="M750.2,749.7H625.3v125.2h0.4c0-0.2,0-0.3,0-0.4C625.8,805.5,681.5,749.7,750.2,749.7z"/>
				<path class="st3" d="M750.2,749.7c-68.7,0-124.4,55.8-124.4,124.7c0,0.1,0,0.3,0,0.4h124.4V749.7z"/>
			</g>
			<g>
				<path class="st3" d="M500.5,1000V874.8H375.6v0.4c0.1,0,0.3,0,0.4,0C444.8,875.3,500.5,931.1,500.5,1000z"/>
				<path class="st1" d="M500.5,1000c0-68.9-55.7-124.7-124.4-124.7c-0.1,0-0.3,0-0.4,0V1000H500.5z"/>
			</g>
			<g>
				<path class="st2" d="M750.2,999.5V874.4H625.3v0.5c0.2,0,0.3,0,0.4,0C694.5,874.8,750.2,930.7,750.2,999.5z"/>
				<path class="st1" d="M750.2,999.5c0-68.9-55.7-124.7-124.4-124.7c-0.1,0-0.3,0-0.4,0v124.7H750.2z"/>
			</g>
			<g>
				<path class="st3" d="M500.5,1000h124.8V874.8h-0.4c0,0.1,0,0.3,0,0.4C624.9,944.2,569.2,1000,500.5,1000z"/>
				<path class="st1" d="M500.5,1000c68.7,0,124.4-55.8,124.4-124.7c0-0.1,0-0.3,0-0.4H500.5V1000z"/>
			</g>
			<g>
				<path class="st2" d="M500.5,749.7v125.2h124.8v-0.5c-0.1,0-0.3,0-0.4,0C556.2,874.4,500.5,818.5,500.5,749.7z"/>
				<path class="st1" d="M500.5,749.7c0,68.9,55.7,124.7,124.4,124.7c0.1,0,0.3,0,0.4,0l0-124.7H500.5z"/>
			</g>
			<g>
				<path class="st1" d="M250.8,1000h124.8V874.8h-0.4c0,0.1,0,0.3,0,0.4C375.2,944.2,319.5,1000,250.8,1000z"/>
				<path class="st2" d="M250.8,1000c68.7,0,124.4-55.8,124.4-124.7c0-0.1,0-0.3,0-0.4H250.8V1000z"/>
			</g>
			<g>
				<path class="st1" d="M1.1,999.5h124.8V874.4h-0.4c0,0.1,0,0.3,0,0.4C125.5,943.7,69.8,999.5,1.1,999.5z"/>
				<path class="st3" d="M1.1,999.5c68.7,0,124.4-55.8,124.4-124.7c0-0.2,0-0.3,0-0.4H1.1V999.5z"/>
			</g>
			<g>
				<path class="st3" d="M250.8,749.7v125.2h124.8v-0.5c-0.1,0-0.3,0-0.4,0C306.5,874.4,250.8,818.5,250.8,749.7z"/>
				<path class="st1" d="M250.8,749.7c0,68.9,55.7,124.7,124.4,124.7c0.1,0,0.3,0,0.4,0V749.7H250.8z"/>
			</g>
			<g>
				<path class="st2" d="M1.1,749.7v125.2h124.8v-0.4c-0.1,0-0.3,0-0.4,0C56.8,874.4,1.1,818.5,1.1,749.7z"/>
				<path class="st1" d="M1.1,749.7c0,68.9,55.7,124.7,124.4,124.7c0.1,0,0.3,0,0.4,0V749.7H1.1z"/>
			</g>
			<g>
				<path class="st3" d="M250.8,749.7H125.9v125.2h0.4c0-0.1,0-0.3,0-0.4C126.4,805.5,182.1,749.7,250.8,749.7z"/>
				<path class="st1" d="M250.8,749.7c-68.7,0-124.4,55.8-124.4,124.7c0,0.1,0,0.3,0,0.4l124.4,0V749.7z"/>
			</g>
			<g>
				<path class="st2" d="M250.8,1000V874.8H125.9v0.4c0.1,0,0.3,0,0.4,0C195.1,875.3,250.8,931.1,250.8,1000z"/>
				<path class="st1" d="M250.8,1000c0-68.9-55.7-124.7-124.4-124.7c-0.1,0-0.3,0-0.4,0V1000H250.8z"/>
			</g>
			<g>
				<path class="st1" d="M1249.5,499.8h-124.8v125.2h0.4c0-0.1,0-0.3,0-0.4C1125.1,555.6,1180.8,499.8,1249.5,499.8z"/>
				<path class="st2" d="M1249.5,499.8c-68.7,0-124.4,55.8-124.4,124.7c0,0.1,0,0.3,0,0.4h124.4V499.8z"/>
			</g>
			<g>
				<path class="st1" d="M1499.2,499.8h-124.8v125.2h0.4c0-0.1,0-0.3,0-0.4C1374.8,555.6,1430.5,499.8,1499.2,499.8z"/>
				<path class="st3" d="M1499.2,499.8c-68.7,0-124.4,55.8-124.4,124.7c0,0.1,0,0.3,0,0.4h124.4V499.8z"/>
			</g>
			<g>
				<path class="st3" d="M1249.5,750.1V624.9h-124.8v0.5c0.1,0,0.3,0,0.4,0C1193.8,625.4,1249.5,681.2,1249.5,750.1z"/>
				<path class="st1" d="M1249.5,750.1c0-68.9-55.7-124.7-124.4-124.7c-0.1,0-0.3,0-0.4,0v124.7H1249.5z"/>
			</g>
			<g>
				<path class="st2" d="M1499.2,749.7V624.5h-124.8v0.4c0.2,0,0.3,0,0.4,0C1443.5,624.9,1499.2,680.8,1499.2,749.7z"/>
				<path class="st1" d="M1499.2,749.7c0-68.9-55.7-124.7-124.4-124.7c-0.1,0-0.3,0-0.4,0v124.7H1499.2z"/>
			</g>
			<g>
				<path class="st3" d="M1249.5,750.1h124.8V624.9h-0.4c0,0.1,0,0.3,0,0.4C1373.9,694.3,1318.2,750.1,1249.5,750.1z"/>
				<path class="st1" d="M1249.5,750.1c68.7,0,124.4-55.8,124.4-124.7c0-0.1,0-0.3,0-0.4l-124.4,0V750.1z"/>
			</g>
			<g>
				<path class="st2" d="M1249.5,499.8v125.2h124.8v-0.4c-0.1,0-0.3,0-0.4,0C1305.2,624.5,1249.5,568.7,1249.5,499.8z"/>
				<path class="st1" d="M1249.5,499.8c0,68.9,55.7,124.7,124.4,124.7c0.1,0,0.3,0,0.4,0l0-124.7H1249.5z"/>
			</g>
			<g>
				<path class="st1" d="M999.8,750.1h124.8V624.9h-0.4c0,0.1,0,0.3,0,0.4C1124.2,694.3,1068.5,750.1,999.8,750.1z"/>
				<path class="st2" d="M999.8,750.1c68.7,0,124.4-55.8,124.4-124.7c0-0.1,0-0.3,0-0.4H999.8V750.1z"/>
			</g>
			<g>
				<path class="st1" d="M750.2,749.7H875V624.5h-0.4c0,0.2,0,0.3,0,0.4C874.6,693.8,818.9,749.7,750.2,749.7z"/>
				<path class="st3" d="M750.2,749.7c68.7,0,124.4-55.8,124.4-124.7c0-0.1,0-0.3,0-0.4H750.2V749.7z"/>
			</g>
			<g>
				<path class="st3" d="M999.8,499.8v125.2h124.8v-0.5c-0.1,0-0.3,0-0.4,0C1055.5,624.5,999.8,568.7,999.8,499.8z"/>
				<path class="st1" d="M999.8,499.8c0,68.9,55.7,124.7,124.4,124.7c0.1,0,0.3,0,0.4,0V499.8H999.8z"/>
			</g>
			<g>
				<path class="st2" d="M750.2,499.8v125.2H875v-0.5c-0.1,0-0.3,0-0.4,0C805.9,624.5,750.2,568.7,750.2,499.8z"/>
				<path class="st1" d="M750.2,499.8c0,68.9,55.7,124.7,124.4,124.7c0.2,0,0.3,0,0.4,0V499.8H750.2z"/>
			</g>
			<g>
				<path class="st3" d="M999.8,499.8H875v125.2h0.4c0-0.1,0-0.3,0-0.4C875.4,555.6,931.1,499.8,999.8,499.8z"/>
				<path class="st1" d="M999.8,499.8c-68.7,0-124.4,55.8-124.4,124.7c0,0.1,0,0.3,0,0.4h124.4V499.8z"/>
			</g>
			<g>
				<path class="st2" d="M999.8,750.1V624.9H875v0.4c0.2,0,0.3,0,0.4,0C944.1,625.4,999.8,681.2,999.8,750.1z"/>
				<path class="st1" d="M999.8,750.1c0-68.9-55.7-124.7-124.4-124.7c-0.1,0-0.3,0-0.4,0v124.7H999.8z"/>
			</g>
			<g>
				<path class="st1" d="M1249.5,749.7h-124.8v125.2h0.4c0-0.1,0-0.3,0-0.4C1125.1,805.5,1180.8,749.7,1249.5,749.7z"/>
				<path class="st2" d="M1249.5,749.7c-68.7,0-124.4,55.8-124.4,124.7c0,0.1,0,0.3,0,0.4h124.4V749.7z"/>
			</g>
			<g>
				<path class="st1" d="M1499.2,749.7h-124.8v125.2h0.4c0-0.1,0-0.3,0-0.4C1374.8,805.5,1430.5,749.7,1499.2,749.7z"/>
				<path class="st3" d="M1499.2,749.7c-68.7,0-124.4,55.8-124.4,124.7c0,0.1,0,0.3,0,0.4h124.4V749.7z"/>
			</g>
			<g>
				<path class="st3" d="M1249.5,1000V874.8h-124.8v0.5c0.1,0,0.3,0,0.4,0C1193.8,875.3,1249.5,931.1,1249.5,1000z"/>
				<path class="st1" d="M1249.5,1000c0-68.9-55.7-124.7-124.4-124.7c-0.1,0-0.3,0-0.4,0V1000H1249.5z"/>
			</g>
			<g>
				<path class="st2" d="M1499.2,999.6V874.4h-124.8v0.4c0.1,0,0.3,0,0.4,0C1443.5,874.8,1499.2,930.7,1499.2,999.6z"/>
				<path class="st1" d="M1499.2,999.6c0-68.9-55.7-124.7-124.4-124.7c-0.1,0-0.3,0-0.4,0v124.7H1499.2z"/>
			</g>
			<g>
				<path class="st3" d="M1249.5,1000h124.8V874.8h-0.4c0,0.1,0,0.3,0,0.4C1373.9,944.2,1318.2,1000,1249.5,1000z"/>
				<path class="st1" d="M1249.5,1000c68.7,0,124.4-55.8,124.4-124.7c0-0.1,0-0.3,0-0.4l-124.4,0V1000z"/>
			</g>
			<g>
				<path class="st2" d="M1249.5,749.7v125.2h124.8v-0.4c-0.1,0-0.3,0-0.4,0C1305.2,874.4,1249.5,818.5,1249.5,749.7z"/>
				<path class="st1" d="M1249.5,749.7c0,68.9,55.7,124.7,124.4,124.7c0.1,0,0.3,0,0.4,0V749.7H1249.5z"/>
			</g>
			<g>
				<path class="st1" d="M999.8,1000h124.8V874.8h-0.4c0,0.1,0,0.3,0,0.4C1124.2,944.2,1068.5,1000,999.8,1000z"/>
				<path class="st2" d="M999.8,1000c68.7,0,124.4-55.8,124.4-124.7c0-0.1,0-0.3,0-0.4H999.8V1000z"/>
			</g>
			<g>
				<path class="st1" d="M750.2,999.5H875V874.4h-0.4c0,0.1,0,0.3,0,0.4C874.6,943.7,818.9,999.5,750.2,999.5z"/>
				<path class="st3" d="M750.2,999.5c68.7,0,124.4-55.8,124.4-124.7c0-0.1,0-0.3,0-0.4H750.2V999.5z"/>
			</g>
			<g>
				<path class="st3" d="M999.8,749.7v125.2h124.8v-0.4c-0.1,0-0.3,0-0.4,0C1055.5,874.4,999.8,818.5,999.8,749.7z"/>
				<path class="st1" d="M999.8,749.7c0,68.9,55.7,124.7,124.4,124.7c0.1,0,0.3,0,0.4,0V749.7H999.8z"/>
			</g>
			<g>
				<path class="st2" d="M750.2,749.7v125.2H875v-0.5c-0.1,0-0.3,0-0.4,0C805.8,874.4,750.2,818.5,750.2,749.7z"/>
				<path class="st1" d="M750.2,749.7c0,68.9,55.7,124.7,124.4,124.7c0.1,0,0.3,0,0.4,0V749.7H750.2z"/>
			</g>
			<g>
				<path class="st3" d="M999.8,749.7H875v125.2h0.4c0-0.2,0-0.3,0-0.4C875.4,805.5,931.1,749.7,999.8,749.7z"/>
				<path class="st1" d="M999.8,749.7c-68.7,0-124.4,55.8-124.4,124.7c0,0.1,0,0.3,0,0.4h124.4V749.7z"/>
			</g>
			<g>
				<path class="st2" d="M999.8,1000V874.8H875v0.4c0.1,0,0.3,0,0.4,0C944.1,875.3,999.8,931.1,999.8,1000z"/>
				<path class="st1" d="M999.8,1000c0-68.9-55.7-124.7-124.4-124.7c-0.1,0-0.3,0-0.4,0V1000H999.8z"/>
			</g>
			<g>
				<path class="st1" d="M1624.1,499.8h-124.8v125.2h0.4c0-0.1,0-0.3,0-0.4C1499.7,555.6,1555.4,499.8,1624.1,499.8z"/>
				<path class="st2" d="M1624.1,499.8c-68.7,0-124.4,55.8-124.4,124.7c0,0.1,0,0.3,0,0.4h124.4V499.8z"/>
			</g>
			<g>
				<path class="st3" d="M1624.1,750.1V624.9h-124.8v0.5c0.1,0,0.3,0,0.4,0C1568.4,625.4,1624.1,681.2,1624.1,750.1z"/>
				<path class="st1" d="M1624.1,750.1c0-68.9-55.7-124.7-124.4-124.7c-0.1,0-0.3,0-0.4,0v124.7H1624.1z"/>
			</g>
			<g>
				<path class="st3" d="M1624.1,750.1h124.8V624.9h-0.4c0,0.1,0,0.3,0,0.4C1748.5,694.3,1692.8,750.1,1624.1,750.1z"/>
				<path class="st1" d="M1624.1,750.1c68.7,0,124.4-55.8,124.4-124.7c0-0.1,0-0.3,0-0.4l-124.4,0V750.1z"/>
			</g>
			<g>
				<path class="st2" d="M1624.1,499.8v125.2h124.8v-0.4c-0.1,0-0.3,0-0.4,0C1679.8,624.5,1624.1,568.7,1624.1,499.8z"/>
				<path class="st1" d="M1624.1,499.8c0,68.9,55.7,124.7,124.4,124.7c0.2,0,0.3,0,0.4,0V499.8H1624.1z"/>
			</g>
			<g>
				<path class="st1" d="M1624.1,749.7h-124.8v125.2h0.4c0-0.1,0-0.3,0-0.4C1499.7,805.5,1555.4,749.7,1624.1,749.7z"/>
				<path class="st2" d="M1624.1,749.7c-68.7,0-124.4,55.8-124.4,124.7c0,0.1,0,0.3,0,0.4h124.4V749.7z"/>
			</g>
			<g>
				<path class="st3" d="M1624.1,1000V874.8h-124.8v0.5c0.1,0,0.3,0,0.4,0C1568.4,875.3,1624.1,931.1,1624.1,1000z"/>
				<path class="st1" d="M1624.1,1000c0-68.9-55.7-124.7-124.4-124.7c-0.1,0-0.3,0-0.4,0V1000H1624.1z"/>
			</g>
			<g>
				<path class="st3" d="M1624.1,1000h124.8V874.8h-0.4c0,0.1,0,0.3,0,0.4C1748.5,944.2,1692.8,1000,1624.1,1000z"/>
				<path class="st1" d="M1624.1,1000c68.7,0,124.4-55.8,124.4-124.7c0-0.1,0-0.3,0-0.4l-124.4,0V1000z"/>
			</g>
			<g>
				<path class="st2" d="M1624.1,749.7v125.2h124.8v-0.4c-0.1,0-0.3,0-0.4,0C1679.8,874.4,1624.1,818.5,1624.1,749.7z"/>
				<path class="st1" d="M1624.1,749.7c0,68.9,55.7,124.7,124.4,124.7c0.2,0,0.3,0,0.4,0l0-124.7H1624.1z"/>
			</g>
		</g>
	</g>
	<g>
		<g>
			<g>
				<path class="st1" d="M1690,945.7c0,1.8-1.5,3.2-3.2,3.2c-1.8,0-3.2-1.5-3.2-3.2c0-1.8,1.5-3.2,3.2-3.2
					C1688.6,942.4,1690,943.9,1690,945.7z"/>
			</g>
			<g>
				<path class="st1" d="M1582,945.7c0,1.8-1.5,3.2-3.2,3.2c-1.8,0-3.2-1.5-3.2-3.2c0-1.8,1.5-3.2,3.2-3.2
					C1580.6,942.4,1582,943.9,1582,945.7z"/>
			</g>
			<g>
				<path class="st1" d="M1474,945.7c0,1.8-1.5,3.2-3.2,3.2c-1.8,0-3.2-1.5-3.2-3.2c0-1.8,1.5-3.2,3.2-3.2
					C1472.6,942.4,1474,943.9,1474,945.7z"/>
			</g>
			<g>
				<path class="st1" d="M1366,945.7c0,1.8-1.5,3.2-3.2,3.2c-1.8,0-3.2-1.5-3.2-3.2c0-1.8,1.5-3.2,3.2-3.2
					C1364.6,942.4,1366,943.9,1366,945.7z"/>
			</g>
			<g>
				<path class="st1" d="M1258,945.7c0,1.8-1.5,3.2-3.2,3.2c-1.8,0-3.2-1.5-3.2-3.2c0-1.8,1.5-3.2,3.2-3.2
					C1256.6,942.4,1258,943.9,1258,945.7z"/>
			</g>
			<g>
				<path class="st1" d="M1150,945.7c0,1.8-1.5,3.2-3.2,3.2c-1.8,0-3.2-1.5-3.2-3.2c0-1.8,1.5-3.2,3.2-3.2
					C1148.6,942.4,1150,943.9,1150,945.7z"/>
			</g>
			<g>
				<path class="st1" d="M1042,945.7c0,1.8-1.5,3.2-3.2,3.2c-1.8,0-3.2-1.5-3.2-3.2c0-1.8,1.5-3.2,3.2-3.2
					C1040.6,942.4,1042,943.9,1042,945.7z"/>
			</g>
			<g>
				<path class="st1" d="M934,945.7c0,1.8-1.5,3.2-3.2,3.2c-1.8,0-3.2-1.5-3.2-3.2c0-1.8,1.5-3.2,3.2-3.2
					C932.6,942.4,934,943.9,934,945.7z"/>
			</g>
			<g>
				<path class="st1" d="M826,945.7c0,1.8-1.5,3.2-3.2,3.2c-1.8,0-3.2-1.5-3.2-3.2c0-1.8,1.5-3.2,3.2-3.2
					C824.6,942.4,826,943.9,826,945.7z"/>
			</g>
			<g>
				<path class="st1" d="M718,945.7c0,1.8-1.5,3.2-3.2,3.2c-1.8,0-3.2-1.5-3.2-3.2c0-1.8,1.5-3.2,3.2-3.2
					C716.6,942.4,718,943.9,718,945.7z"/>
			</g>
			<g>
				<path class="st1" d="M610,945.7c0,1.8-1.5,3.2-3.2,3.2c-1.8,0-3.2-1.5-3.2-3.2c0-1.8,1.5-3.2,3.2-3.2
					C608.6,942.4,610,943.9,610,945.7z"/>
			</g>
			<g>
				<path class="st1" d="M502,945.7c0,1.8-1.5,3.2-3.2,3.2c-1.8,0-3.2-1.5-3.2-3.2c0-1.8,1.5-3.2,3.2-3.2
					C500.6,942.4,502,943.9,502,945.7z"/>
			</g>
			<g>
				<path class="st1" d="M394,945.7c0,1.8-1.5,3.2-3.2,3.2c-1.8,0-3.2-1.5-3.2-3.2c0-1.8,1.5-3.2,3.2-3.2
					C392.6,942.4,394,943.9,394,945.7z"/>
			</g>
			<g>
				<path class="st1" d="M286,945.7c0,1.8-1.5,3.2-3.2,3.2c-1.8,0-3.2-1.5-3.2-3.2c0-1.8,1.5-3.2,3.2-3.2
					C284.6,942.4,286,943.9,286,945.7z"/>
			</g>
			<g>
				<path class="st1" d="M178,945.7c0,1.8-1.5,3.2-3.2,3.2c-1.8,0-3.2-1.5-3.2-3.2c0-1.8,1.5-3.2,3.2-3.2
					C176.6,942.4,178,943.9,178,945.7z"/>
			</g>
			<g>
				<path class="st1" d="M70,945.7c0,1.8-1.5,3.2-3.2,3.2c-1.8,0-3.2-1.5-3.2-3.2c0-1.8,1.5-3.2,3.2-3.2
					C68.6,942.4,70,943.9,70,945.7z"/>
			</g>
		</g>
		<g>
			<g>
				<path class="st1" d="M1690,857.7c0,1.8-1.5,3.2-3.2,3.2c-1.8,0-3.2-1.5-3.2-3.2c0-1.8,1.5-3.2,3.2-3.2
					C1688.6,854.4,1690,855.9,1690,857.7z"/>
			</g>
			<g>
				<path class="st1" d="M1582,857.7c0,1.8-1.5,3.2-3.2,3.2c-1.8,0-3.2-1.5-3.2-3.2c0-1.8,1.5-3.2,3.2-3.2
					C1580.6,854.4,1582,855.9,1582,857.7z"/>
			</g>
			<g>
				<path class="st1" d="M1474,857.7c0,1.8-1.5,3.2-3.2,3.2c-1.8,0-3.2-1.5-3.2-3.2c0-1.8,1.5-3.2,3.2-3.2
					C1472.6,854.4,1474,855.9,1474,857.7z"/>
			</g>
			<g>
				<path class="st1" d="M1366,857.7c0,1.8-1.5,3.2-3.2,3.2c-1.8,0-3.2-1.5-3.2-3.2c0-1.8,1.5-3.2,3.2-3.2
					C1364.6,854.4,1366,855.9,1366,857.7z"/>
			</g>
			<g>
				<path class="st1" d="M1258,857.7c0,1.8-1.5,3.2-3.2,3.2c-1.8,0-3.2-1.5-3.2-3.2c0-1.8,1.5-3.2,3.2-3.2
					C1256.6,854.4,1258,855.9,1258,857.7z"/>
			</g>
			<g>
				<path class="st1" d="M1150,857.7c0,1.8-1.5,3.2-3.2,3.2c-1.8,0-3.2-1.5-3.2-3.2c0-1.8,1.5-3.2,3.2-3.2
					C1148.6,854.4,1150,855.9,1150,857.7z"/>
			</g>
			<g>
				<path class="st1" d="M1042,857.7c0,1.8-1.5,3.2-3.2,3.2c-1.8,0-3.2-1.5-3.2-3.2c0-1.8,1.5-3.2,3.2-3.2
					C1040.6,854.4,1042,855.9,1042,857.7z"/>
			</g>
			<g>
				<path class="st1" d="M934,857.7c0,1.8-1.5,3.2-3.2,3.2c-1.8,0-3.2-1.5-3.2-3.2c0-1.8,1.5-3.2,3.2-3.2
					C932.6,854.4,934,855.9,934,857.7z"/>
			</g>
			<g>
				<path class="st1" d="M826,857.7c0,1.8-1.5,3.2-3.2,3.2c-1.8,0-3.2-1.5-3.2-3.2c0-1.8,1.5-3.2,3.2-3.2
					C824.6,854.4,826,855.9,826,857.7z"/>
			</g>
			<g>
				<path class="st1" d="M718,857.7c0,1.8-1.5,3.2-3.2,3.2c-1.8,0-3.2-1.5-3.2-3.2c0-1.8,1.5-3.2,3.2-3.2
					C716.6,854.4,718,855.9,718,857.7z"/>
			</g>
			<g>
				<path class="st1" d="M610,857.7c0,1.8-1.5,3.2-3.2,3.2c-1.8,0-3.2-1.5-3.2-3.2c0-1.8,1.5-3.2,3.2-3.2
					C608.6,854.4,610,855.9,610,857.7z"/>
			</g>
			<g>
				<path class="st1" d="M502,857.7c0,1.8-1.5,3.2-3.2,3.2c-1.8,0-3.2-1.5-3.2-3.2c0-1.8,1.5-3.2,3.2-3.2
					C500.6,854.4,502,855.9,502,857.7z"/>
			</g>
			<g>
				<path class="st1" d="M394,857.7c0,1.8-1.5,3.2-3.2,3.2c-1.8,0-3.2-1.5-3.2-3.2c0-1.8,1.5-3.2,3.2-3.2
					C392.6,854.4,394,855.9,394,857.7z"/>
			</g>
			<g>
				<path class="st1" d="M286,857.7c0,1.8-1.5,3.2-3.2,3.2c-1.8,0-3.2-1.5-3.2-3.2c0-1.8,1.5-3.2,3.2-3.2
					C284.6,854.4,286,855.9,286,857.7z"/>
			</g>
			<g>
				<path class="st1" d="M178,857.7c0,1.8-1.5,3.2-3.2,3.2c-1.8,0-3.2-1.5-3.2-3.2c0-1.8,1.5-3.2,3.2-3.2
					C176.6,854.4,178,855.9,178,857.7z"/>
			</g>
			<g>
				<path class="st1" d="M70,857.7c0,1.8-1.5,3.2-3.2,3.2c-1.8,0-3.2-1.5-3.2-3.2c0-1.8,1.5-3.2,3.2-3.2
					C68.6,854.4,70,855.9,70,857.7z"/>
			</g>
		</g>
		<g>
			<g>
				<path class="st1" d="M1690,769.7c0,1.8-1.5,3.2-3.2,3.2c-1.8,0-3.2-1.5-3.2-3.2c0-1.8,1.5-3.2,3.2-3.2
					C1688.6,766.4,1690,767.9,1690,769.7z"/>
			</g>
			<g>
				<path class="st1" d="M1582,769.7c0,1.8-1.5,3.2-3.2,3.2c-1.8,0-3.2-1.5-3.2-3.2c0-1.8,1.5-3.2,3.2-3.2
					C1580.6,766.4,1582,767.9,1582,769.7z"/>
			</g>
			<g>
				<path class="st1" d="M1474,769.7c0,1.8-1.5,3.2-3.2,3.2c-1.8,0-3.2-1.5-3.2-3.2c0-1.8,1.5-3.2,3.2-3.2
					C1472.6,766.4,1474,767.9,1474,769.7z"/>
			</g>
			<g>
				<path class="st1" d="M1366,769.7c0,1.8-1.5,3.2-3.2,3.2c-1.8,0-3.2-1.5-3.2-3.2c0-1.8,1.5-3.2,3.2-3.2
					C1364.6,766.4,1366,767.9,1366,769.7z"/>
			</g>
			<g>
				<path class="st1" d="M1258,769.7c0,1.8-1.5,3.2-3.2,3.2c-1.8,0-3.2-1.5-3.2-3.2c0-1.8,1.5-3.2,3.2-3.2
					C1256.6,766.4,1258,767.9,1258,769.7z"/>
			</g>
			<g>
				<path class="st1" d="M1150,769.7c0,1.8-1.5,3.2-3.2,3.2c-1.8,0-3.2-1.5-3.2-3.2c0-1.8,1.5-3.2,3.2-3.2
					C1148.6,766.4,1150,767.9,1150,769.7z"/>
			</g>
			<g>
				<path class="st1" d="M1042,769.7c0,1.8-1.5,3.2-3.2,3.2c-1.8,0-3.2-1.5-3.2-3.2c0-1.8,1.5-3.2,3.2-3.2
					C1040.6,766.4,1042,767.9,1042,769.7z"/>
			</g>
			<g>
				<path class="st1" d="M934,769.7c0,1.8-1.5,3.2-3.2,3.2c-1.8,0-3.2-1.5-3.2-3.2c0-1.8,1.5-3.2,3.2-3.2
					C932.6,766.4,934,767.9,934,769.7z"/>
			</g>
			<g>
				<path class="st1" d="M826,769.7c0,1.8-1.5,3.2-3.2,3.2c-1.8,0-3.2-1.5-3.2-3.2c0-1.8,1.5-3.2,3.2-3.2
					C824.6,766.4,826,767.9,826,769.7z"/>
			</g>
			<g>
				<path class="st1" d="M718,769.7c0,1.8-1.5,3.2-3.2,3.2c-1.8,0-3.2-1.5-3.2-3.2c0-1.8,1.5-3.2,3.2-3.2
					C716.6,766.4,718,767.9,718,769.7z"/>
			</g>
			<g>
				<path class="st1" d="M610,769.7c0,1.8-1.5,3.2-3.2,3.2c-1.8,0-3.2-1.5-3.2-3.2c0-1.8,1.5-3.2,3.2-3.2
					C608.6,766.4,610,767.9,610,769.7z"/>
			</g>
			<g>
				<path class="st1" d="M502,769.7c0,1.8-1.5,3.2-3.2,3.2c-1.8,0-3.2-1.5-3.2-3.2c0-1.8,1.5-3.2,3.2-3.2
					C500.6,766.4,502,767.9,502,769.7z"/>
			</g>
			<g>
				<path class="st1" d="M394,769.7c0,1.8-1.5,3.2-3.2,3.2c-1.8,0-3.2-1.5-3.2-3.2c0-1.8,1.5-3.2,3.2-3.2
					C392.6,766.4,394,767.9,394,769.7z"/>
			</g>
			<g>
				<path class="st1" d="M286,769.7c0,1.8-1.5,3.2-3.2,3.2c-1.8,0-3.2-1.5-3.2-3.2c0-1.8,1.5-3.2,3.2-3.2
					C284.6,766.4,286,767.9,286,769.7z"/>
			</g>
			<g>
				<path class="st1" d="M178,769.7c0,1.8-1.5,3.2-3.2,3.2c-1.8,0-3.2-1.5-3.2-3.2c0-1.8,1.5-3.2,3.2-3.2
					C176.6,766.4,178,767.9,178,769.7z"/>
			</g>
			<g>
				<path class="st1" d="M70,769.7c0,1.8-1.5,3.2-3.2,3.2c-1.8,0-3.2-1.5-3.2-3.2c0-1.8,1.5-3.2,3.2-3.2
					C68.6,766.4,70,767.9,70,769.7z"/>
			</g>
		</g>
		<g>
			<g>
				<path class="st1" d="M1690,681.7c0,1.8-1.5,3.2-3.2,3.2c-1.8,0-3.2-1.5-3.2-3.2c0-1.8,1.5-3.2,3.2-3.2
					C1688.6,678.4,1690,679.9,1690,681.7z"/>
			</g>
			<g>
				<path class="st1" d="M1582,681.7c0,1.8-1.5,3.2-3.2,3.2c-1.8,0-3.2-1.5-3.2-3.2c0-1.8,1.5-3.2,3.2-3.2
					C1580.6,678.4,1582,679.9,1582,681.7z"/>
			</g>
			<g>
				<path class="st1" d="M1474,681.7c0,1.8-1.5,3.2-3.2,3.2c-1.8,0-3.2-1.5-3.2-3.2c0-1.8,1.5-3.2,3.2-3.2
					C1472.6,678.4,1474,679.9,1474,681.7z"/>
			</g>
			<g>
				<path class="st1" d="M1366,681.7c0,1.8-1.5,3.2-3.2,3.2c-1.8,0-3.2-1.5-3.2-3.2c0-1.8,1.5-3.2,3.2-3.2
					C1364.6,678.4,1366,679.9,1366,681.7z"/>
			</g>
			<g>
				<path class="st1" d="M1258,681.7c0,1.8-1.5,3.2-3.2,3.2c-1.8,0-3.2-1.5-3.2-3.2c0-1.8,1.5-3.2,3.2-3.2
					C1256.6,678.4,1258,679.9,1258,681.7z"/>
			</g>
			<g>
				<path class="st1" d="M1150,681.7c0,1.8-1.5,3.2-3.2,3.2c-1.8,0-3.2-1.5-3.2-3.2c0-1.8,1.5-3.2,3.2-3.2
					C1148.6,678.4,1150,679.9,1150,681.7z"/>
			</g>
			<g>
				<path class="st1" d="M1042,681.7c0,1.8-1.5,3.2-3.2,3.2c-1.8,0-3.2-1.5-3.2-3.2c0-1.8,1.5-3.2,3.2-3.2
					C1040.6,678.4,1042,679.9,1042,681.7z"/>
			</g>
			<g>
				<path class="st1" d="M934,681.7c0,1.8-1.5,3.2-3.2,3.2c-1.8,0-3.2-1.5-3.2-3.2c0-1.8,1.5-3.2,3.2-3.2
					C932.6,678.4,934,679.9,934,681.7z"/>
			</g>
			<g>
				<path class="st1" d="M826,681.7c0,1.8-1.5,3.2-3.2,3.2c-1.8,0-3.2-1.5-3.2-3.2c0-1.8,1.5-3.2,3.2-3.2
					C824.6,678.4,826,679.9,826,681.7z"/>
			</g>
			<g>
				<path class="st1" d="M718,681.7c0,1.8-1.5,3.2-3.2,3.2c-1.8,0-3.2-1.5-3.2-3.2c0-1.8,1.5-3.2,3.2-3.2
					C716.6,678.4,718,679.9,718,681.7z"/>
			</g>
			<g>
				<path class="st1" d="M610,681.7c0,1.8-1.5,3.2-3.2,3.2c-1.8,0-3.2-1.5-3.2-3.2c0-1.8,1.5-3.2,3.2-3.2
					C608.6,678.4,610,679.9,610,681.7z"/>
			</g>
			<g>
				<path class="st1" d="M502,681.7c0,1.8-1.5,3.2-3.2,3.2c-1.8,0-3.2-1.5-3.2-3.2c0-1.8,1.5-3.2,3.2-3.2
					C500.6,678.4,502,679.9,502,681.7z"/>
			</g>
			<g>
				<path class="st1" d="M394,681.7c0,1.8-1.5,3.2-3.2,3.2c-1.8,0-3.2-1.5-3.2-3.2c0-1.8,1.5-3.2,3.2-3.2
					C392.6,678.4,394,679.9,394,681.7z"/>
			</g>
			<g>
				<path class="st1" d="M286,681.7c0,1.8-1.5,3.2-3.2,3.2c-1.8,0-3.2-1.5-3.2-3.2c0-1.8,1.5-3.2,3.2-3.2
					C284.6,678.4,286,679.9,286,681.7z"/>
			</g>
			<g>
				<path class="st1" d="M178,681.7c0,1.8-1.5,3.2-3.2,3.2c-1.8,0-3.2-1.5-3.2-3.2c0-1.8,1.5-3.2,3.2-3.2
					C176.6,678.4,178,679.9,178,681.7z"/>
			</g>
			<g>
				<path class="st1" d="M70,681.7c0,1.8-1.5,3.2-3.2,3.2c-1.8,0-3.2-1.5-3.2-3.2c0-1.8,1.5-3.2,3.2-3.2
					C68.6,678.4,70,679.9,70,681.7z"/>
			</g>
		</g>
		<g>
			<g>
				<path class="st1" d="M1690,593.7c0,1.8-1.5,3.2-3.2,3.2c-1.8,0-3.2-1.5-3.2-3.2c0-1.8,1.5-3.2,3.2-3.2
					C1688.6,590.4,1690,591.9,1690,593.7z"/>
			</g>
			<g>
				<path class="st1" d="M1582,593.7c0,1.8-1.5,3.2-3.2,3.2c-1.8,0-3.2-1.5-3.2-3.2c0-1.8,1.5-3.2,3.2-3.2
					C1580.6,590.4,1582,591.9,1582,593.7z"/>
			</g>
			<g>
				<path class="st1" d="M1474,593.7c0,1.8-1.5,3.2-3.2,3.2c-1.8,0-3.2-1.5-3.2-3.2c0-1.8,1.5-3.2,3.2-3.2
					C1472.6,590.4,1474,591.9,1474,593.7z"/>
			</g>
			<g>
				<path class="st1" d="M1366,593.7c0,1.8-1.5,3.2-3.2,3.2c-1.8,0-3.2-1.5-3.2-3.2c0-1.8,1.5-3.2,3.2-3.2
					C1364.6,590.4,1366,591.9,1366,593.7z"/>
			</g>
			<g>
				<path class="st1" d="M1258,593.7c0,1.8-1.5,3.2-3.2,3.2c-1.8,0-3.2-1.5-3.2-3.2c0-1.8,1.5-3.2,3.2-3.2
					C1256.6,590.4,1258,591.9,1258,593.7z"/>
			</g>
			<g>
				<path class="st1" d="M1150,593.7c0,1.8-1.5,3.2-3.2,3.2c-1.8,0-3.2-1.5-3.2-3.2c0-1.8,1.5-3.2,3.2-3.2
					C1148.6,590.4,1150,591.9,1150,593.7z"/>
			</g>
			<g>
				<path class="st1" d="M1042,593.7c0,1.8-1.5,3.2-3.2,3.2c-1.8,0-3.2-1.5-3.2-3.2c0-1.8,1.5-3.2,3.2-3.2
					C1040.6,590.4,1042,591.9,1042,593.7z"/>
			</g>
			<g>
				<path class="st1" d="M934,593.7c0,1.8-1.5,3.2-3.2,3.2c-1.8,0-3.2-1.5-3.2-3.2c0-1.8,1.5-3.2,3.2-3.2
					C932.6,590.4,934,591.9,934,593.7z"/>
			</g>
			<g>
				<path class="st1" d="M826,593.7c0,1.8-1.5,3.2-3.2,3.2c-1.8,0-3.2-1.5-3.2-3.2c0-1.8,1.5-3.2,3.2-3.2
					C824.6,590.4,826,591.9,826,593.7z"/>
			</g>
			<g>
				<path class="st1" d="M718,593.7c0,1.8-1.5,3.2-3.2,3.2c-1.8,0-3.2-1.5-3.2-3.2c0-1.8,1.5-3.2,3.2-3.2
					C716.6,590.4,718,591.9,718,593.7z"/>
			</g>
			<g>
				<path class="st1" d="M610,593.7c0,1.8-1.5,3.2-3.2,3.2c-1.8,0-3.2-1.5-3.2-3.2c0-1.8,1.5-3.2,3.2-3.2
					C608.6,590.4,610,591.9,610,593.7z"/>
			</g>
			<g>
				<path class="st1" d="M502,593.7c0,1.8-1.5,3.2-3.2,3.2c-1.8,0-3.2-1.5-3.2-3.2c0-1.8,1.5-3.2,3.2-3.2
					C500.6,590.4,502,591.9,502,593.7z"/>
			</g>
			<g>
				<path class="st1" d="M394,593.7c0,1.8-1.5,3.2-3.2,3.2c-1.8,0-3.2-1.5-3.2-3.2c0-1.8,1.5-3.2,3.2-3.2
					C392.6,590.4,394,591.9,394,593.7z"/>
			</g>
			<g>
				<path class="st1" d="M286,593.7c0,1.8-1.5,3.2-3.2,3.2c-1.8,0-3.2-1.5-3.2-3.2c0-1.8,1.5-3.2,3.2-3.2
					C284.6,590.4,286,591.9,286,593.7z"/>
			</g>
			<g>
				<path class="st1" d="M178,593.7c0,1.8-1.5,3.2-3.2,3.2c-1.8,0-3.2-1.5-3.2-3.2c0-1.8,1.5-3.2,3.2-3.2
					C176.6,590.4,178,591.9,178,593.7z"/>
			</g>
			<g>
				<path class="st1" d="M70,593.7c0,1.8-1.5,3.2-3.2,3.2c-1.8,0-3.2-1.5-3.2-3.2c0-1.8,1.5-3.2,3.2-3.2
					C68.6,590.4,70,591.9,70,593.7z"/>
			</g>
		</g>
		<g>
			<g>
				<path class="st1" d="M1690,505.7c0,1.8-1.5,3.2-3.2,3.2c-1.8,0-3.2-1.5-3.2-3.2c0-1.8,1.5-3.2,3.2-3.2
					C1688.6,502.4,1690,503.9,1690,505.7z"/>
			</g>
			<g>
				<path class="st1" d="M1582,505.7c0,1.8-1.5,3.2-3.2,3.2c-1.8,0-3.2-1.5-3.2-3.2c0-1.8,1.5-3.2,3.2-3.2
					C1580.6,502.4,1582,503.9,1582,505.7z"/>
			</g>
			<g>
				<path class="st1" d="M1474,505.7c0,1.8-1.5,3.2-3.2,3.2c-1.8,0-3.2-1.5-3.2-3.2c0-1.8,1.5-3.2,3.2-3.2
					C1472.6,502.4,1474,503.9,1474,505.7z"/>
			</g>
			<g>
				<path class="st1" d="M1366,505.7c0,1.8-1.5,3.2-3.2,3.2c-1.8,0-3.2-1.5-3.2-3.2c0-1.8,1.5-3.2,3.2-3.2
					C1364.6,502.4,1366,503.9,1366,505.7z"/>
			</g>
			<g>
				<path class="st1" d="M1258,505.7c0,1.8-1.5,3.2-3.2,3.2c-1.8,0-3.2-1.5-3.2-3.2c0-1.8,1.5-3.2,3.2-3.2
					C1256.6,502.4,1258,503.9,1258,505.7z"/>
			</g>
			<g>
				<path class="st1" d="M1150,505.7c0,1.8-1.5,3.2-3.2,3.2c-1.8,0-3.2-1.5-3.2-3.2c0-1.8,1.5-3.2,3.2-3.2
					C1148.6,502.4,1150,503.9,1150,505.7z"/>
			</g>
			<g>
				<path class="st1" d="M1042,505.7c0,1.8-1.5,3.2-3.2,3.2c-1.8,0-3.2-1.5-3.2-3.2c0-1.8,1.5-3.2,3.2-3.2
					C1040.6,502.4,1042,503.9,1042,505.7z"/>
			</g>
			<g>
				<path class="st1" d="M934,505.7c0,1.8-1.5,3.2-3.2,3.2c-1.8,0-3.2-1.5-3.2-3.2c0-1.8,1.5-3.2,3.2-3.2
					C932.6,502.4,934,503.9,934,505.7z"/>
			</g>
			<g>
				<path class="st1" d="M826,505.7c0,1.8-1.5,3.2-3.2,3.2c-1.8,0-3.2-1.5-3.2-3.2c0-1.8,1.5-3.2,3.2-3.2
					C824.6,502.4,826,503.9,826,505.7z"/>
			</g>
			<g>
				<path class="st1" d="M718,505.7c0,1.8-1.5,3.2-3.2,3.2c-1.8,0-3.2-1.5-3.2-3.2c0-1.8,1.5-3.2,3.2-3.2
					C716.6,502.4,718,503.9,718,505.7z"/>
			</g>
			<g>
				<path class="st1" d="M610,505.7c0,1.8-1.5,3.2-3.2,3.2c-1.8,0-3.2-1.5-3.2-3.2c0-1.8,1.5-3.2,3.2-3.2
					C608.6,502.4,610,503.9,610,505.7z"/>
			</g>
			<g>
				<path class="st1" d="M502,505.7c0,1.8-1.5,3.2-3.2,3.2c-1.8,0-3.2-1.5-3.2-3.2c0-1.8,1.5-3.2,3.2-3.2
					C500.6,502.4,502,503.9,502,505.7z"/>
			</g>
			<g>
				<path class="st1" d="M394,505.7c0,1.8-1.5,3.2-3.2,3.2c-1.8,0-3.2-1.5-3.2-3.2c0-1.8,1.5-3.2,3.2-3.2
					C392.6,502.4,394,503.9,394,505.7z"/>
			</g>
			<g>
				<path class="st1" d="M286,505.7c0,1.8-1.5,3.2-3.2,3.2c-1.8,0-3.2-1.5-3.2-3.2c0-1.8,1.5-3.2,3.2-3.2
					C284.6,502.4,286,503.9,286,505.7z"/>
			</g>
			<g>
				<path class="st1" d="M178,505.7c0,1.8-1.5,3.2-3.2,3.2c-1.8,0-3.2-1.5-3.2-3.2c0-1.8,1.5-3.2,3.2-3.2
					C176.6,502.4,178,503.9,178,505.7z"/>
			</g>
			<g>
				<path class="st1" d="M70,505.7c0,1.8-1.5,3.2-3.2,3.2c-1.8,0-3.2-1.5-3.2-3.2c0-1.8,1.5-3.2,3.2-3.2
					C68.6,502.4,70,503.9,70,505.7z"/>
			</g>
		</g>
		<g>
			<g>
				<path class="st1" d="M1690,417.7c0,1.8-1.5,3.2-3.2,3.2c-1.8,0-3.2-1.5-3.2-3.2c0-1.8,1.5-3.2,3.2-3.2
					C1688.6,414.4,1690,415.9,1690,417.7z"/>
			</g>
			<g>
				<path class="st1" d="M1582,417.7c0,1.8-1.5,3.2-3.2,3.2c-1.8,0-3.2-1.5-3.2-3.2c0-1.8,1.5-3.2,3.2-3.2
					C1580.6,414.4,1582,415.9,1582,417.7z"/>
			</g>
			<g>
				<path class="st1" d="M1474,417.7c0,1.8-1.5,3.2-3.2,3.2c-1.8,0-3.2-1.5-3.2-3.2c0-1.8,1.5-3.2,3.2-3.2
					C1472.6,414.4,1474,415.9,1474,417.7z"/>
			</g>
			<g>
				<path class="st1" d="M1366,417.7c0,1.8-1.5,3.2-3.2,3.2c-1.8,0-3.2-1.5-3.2-3.2c0-1.8,1.5-3.2,3.2-3.2
					C1364.6,414.4,1366,415.9,1366,417.7z"/>
			</g>
			<g>
				<path class="st1" d="M1258,417.7c0,1.8-1.5,3.2-3.2,3.2c-1.8,0-3.2-1.5-3.2-3.2c0-1.8,1.5-3.2,3.2-3.2
					C1256.6,414.4,1258,415.9,1258,417.7z"/>
			</g>
			<g>
				<path class="st1" d="M1150,417.7c0,1.8-1.5,3.2-3.2,3.2c-1.8,0-3.2-1.5-3.2-3.2c0-1.8,1.5-3.2,3.2-3.2
					C1148.6,414.4,1150,415.9,1150,417.7z"/>
			</g>
			<g>
				<path class="st1" d="M1042,417.7c0,1.8-1.5,3.2-3.2,3.2c-1.8,0-3.2-1.5-3.2-3.2c0-1.8,1.5-3.2,3.2-3.2
					C1040.6,414.4,1042,415.9,1042,417.7z"/>
			</g>
			<g>
				<path class="st1" d="M934,417.7c0,1.8-1.5,3.2-3.2,3.2c-1.8,0-3.2-1.5-3.2-3.2c0-1.8,1.5-3.2,3.2-3.2
					C932.6,414.4,934,415.9,934,417.7z"/>
			</g>
			<g>
				<path class="st1" d="M826,417.7c0,1.8-1.5,3.2-3.2,3.2c-1.8,0-3.2-1.5-3.2-3.2c0-1.8,1.5-3.2,3.2-3.2
					C824.6,414.4,826,415.9,826,417.7z"/>
			</g>
			<g>
				<path class="st1" d="M718,417.7c0,1.8-1.5,3.2-3.2,3.2c-1.8,0-3.2-1.5-3.2-3.2c0-1.8,1.5-3.2,3.2-3.2
					C716.6,414.4,718,415.9,718,417.7z"/>
			</g>
			<g>
				<path class="st1" d="M610,417.7c0,1.8-1.5,3.2-3.2,3.2c-1.8,0-3.2-1.5-3.2-3.2c0-1.8,1.5-3.2,3.2-3.2
					C608.6,414.4,610,415.9,610,417.7z"/>
			</g>
			<g>
				<path class="st1" d="M502,417.7c0,1.8-1.5,3.2-3.2,3.2c-1.8,0-3.2-1.5-3.2-3.2c0-1.8,1.5-3.2,3.2-3.2
					C500.6,414.4,502,415.9,502,417.7z"/>
			</g>
			<g>
				<path class="st1" d="M394,417.7c0,1.8-1.5,3.2-3.2,3.2c-1.8,0-3.2-1.5-3.2-3.2c0-1.8,1.5-3.2,3.2-3.2
					C392.6,414.4,394,415.9,394,417.7z"/>
			</g>
			<g>
				<path class="st1" d="M286,417.7c0,1.8-1.5,3.2-3.2,3.2c-1.8,0-3.2-1.5-3.2-3.2c0-1.8,1.5-3.2,3.2-3.2
					C284.6,414.4,286,415.9,286,417.7z"/>
			</g>
			<g>
				<path class="st1" d="M178,417.7c0,1.8-1.5,3.2-3.2,3.2c-1.8,0-3.2-1.5-3.2-3.2c0-1.8,1.5-3.2,3.2-3.2
					C176.6,414.4,178,415.9,178,417.7z"/>
			</g>
			<g>
				<path class="st1" d="M70,417.7c0,1.8-1.5,3.2-3.2,3.2c-1.8,0-3.2-1.5-3.2-3.2c0-1.8,1.5-3.2,3.2-3.2
					C68.6,414.4,70,415.9,70,417.7z"/>
			</g>
		</g>
		<g>
			<g>
				<path class="st1" d="M1690,329.7c0,1.8-1.5,3.2-3.2,3.2c-1.8,0-3.2-1.5-3.2-3.2c0-1.8,1.5-3.2,3.2-3.2
					C1688.6,326.4,1690,327.9,1690,329.7z"/>
			</g>
			<g>
				<path class="st1" d="M1582,329.7c0,1.8-1.5,3.2-3.2,3.2c-1.8,0-3.2-1.5-3.2-3.2c0-1.8,1.5-3.2,3.2-3.2
					C1580.6,326.4,1582,327.9,1582,329.7z"/>
			</g>
			<g>
				<path class="st1" d="M1474,329.7c0,1.8-1.5,3.2-3.2,3.2c-1.8,0-3.2-1.5-3.2-3.2c0-1.8,1.5-3.2,3.2-3.2
					C1472.6,326.4,1474,327.9,1474,329.7z"/>
			</g>
			<g>
				<path class="st1" d="M1366,329.7c0,1.8-1.5,3.2-3.2,3.2c-1.8,0-3.2-1.5-3.2-3.2c0-1.8,1.5-3.2,3.2-3.2
					C1364.6,326.4,1366,327.9,1366,329.7z"/>
			</g>
			<g>
				<path class="st1" d="M1258,329.7c0,1.8-1.5,3.2-3.2,3.2c-1.8,0-3.2-1.5-3.2-3.2c0-1.8,1.5-3.2,3.2-3.2
					C1256.6,326.4,1258,327.9,1258,329.7z"/>
			</g>
			<g>
				<path class="st1" d="M1150,329.7c0,1.8-1.5,3.2-3.2,3.2c-1.8,0-3.2-1.5-3.2-3.2c0-1.8,1.5-3.2,3.2-3.2
					C1148.6,326.4,1150,327.9,1150,329.7z"/>
			</g>
			<g>
				<path class="st1" d="M1042,329.7c0,1.8-1.5,3.2-3.2,3.2c-1.8,0-3.2-1.5-3.2-3.2c0-1.8,1.5-3.2,3.2-3.2
					C1040.6,326.4,1042,327.9,1042,329.7z"/>
			</g>
			<g>
				<path class="st1" d="M934,329.7c0,1.8-1.5,3.2-3.2,3.2c-1.8,0-3.2-1.5-3.2-3.2c0-1.8,1.5-3.2,3.2-3.2
					C932.6,326.4,934,327.9,934,329.7z"/>
			</g>
			<g>
				<path class="st1" d="M826,329.7c0,1.8-1.5,3.2-3.2,3.2c-1.8,0-3.2-1.5-3.2-3.2c0-1.8,1.5-3.2,3.2-3.2
					C824.6,326.4,826,327.9,826,329.7z"/>
			</g>
			<g>
				<path class="st1" d="M718,329.7c0,1.8-1.5,3.2-3.2,3.2c-1.8,0-3.2-1.5-3.2-3.2c0-1.8,1.5-3.2,3.2-3.2
					C716.6,326.4,718,327.9,718,329.7z"/>
			</g>
			<g>
				<path class="st1" d="M610,329.7c0,1.8-1.5,3.2-3.2,3.2c-1.8,0-3.2-1.5-3.2-3.2c0-1.8,1.5-3.2,3.2-3.2
					C608.6,326.4,610,327.9,610,329.7z"/>
			</g>
			<g>
				<path class="st1" d="M502,329.7c0,1.8-1.5,3.2-3.2,3.2c-1.8,0-3.2-1.5-3.2-3.2c0-1.8,1.5-3.2,3.2-3.2
					C500.6,326.4,502,327.9,502,329.7z"/>
			</g>
			<g>
				<path class="st1" d="M394,329.7c0,1.8-1.5,3.2-3.2,3.2c-1.8,0-3.2-1.5-3.2-3.2c0-1.8,1.5-3.2,3.2-3.2
					C392.6,326.4,394,327.9,394,329.7z"/>
			</g>
			<g>
				<path class="st1" d="M286,329.7c0,1.8-1.5,3.2-3.2,3.2c-1.8,0-3.2-1.5-3.2-3.2c0-1.8,1.5-3.2,3.2-3.2
					C284.6,326.4,286,327.9,286,329.7z"/>
			</g>
			<g>
				<path class="st1" d="M178,329.7c0,1.8-1.5,3.2-3.2,3.2c-1.8,0-3.2-1.5-3.2-3.2c0-1.8,1.5-3.2,3.2-3.2
					C176.6,326.4,178,327.9,178,329.7z"/>
			</g>
			<g>
				<path class="st1" d="M70,329.7c0,1.8-1.5,3.2-3.2,3.2c-1.8,0-3.2-1.5-3.2-3.2c0-1.8,1.5-3.2,3.2-3.2
					C68.6,326.4,70,327.9,70,329.7z"/>
			</g>
		</g>
		<g>
			<g>
				<path class="st1" d="M1690,241.7c0,1.8-1.5,3.2-3.2,3.2c-1.8,0-3.2-1.5-3.2-3.2c0-1.8,1.5-3.2,3.2-3.2
					C1688.6,238.4,1690,239.9,1690,241.7z"/>
			</g>
			<g>
				<path class="st1" d="M1582,241.7c0,1.8-1.5,3.2-3.2,3.2c-1.8,0-3.2-1.5-3.2-3.2c0-1.8,1.5-3.2,3.2-3.2
					C1580.6,238.4,1582,239.9,1582,241.7z"/>
			</g>
			<g>
				<path class="st1" d="M1474,241.7c0,1.8-1.5,3.2-3.2,3.2c-1.8,0-3.2-1.5-3.2-3.2c0-1.8,1.5-3.2,3.2-3.2
					C1472.6,238.4,1474,239.9,1474,241.7z"/>
			</g>
			<g>
				<path class="st1" d="M1366,241.7c0,1.8-1.5,3.2-3.2,3.2c-1.8,0-3.2-1.5-3.2-3.2c0-1.8,1.5-3.2,3.2-3.2
					C1364.6,238.4,1366,239.9,1366,241.7z"/>
			</g>
			<g>
				<path class="st1" d="M1258,241.7c0,1.8-1.5,3.2-3.2,3.2c-1.8,0-3.2-1.5-3.2-3.2c0-1.8,1.5-3.2,3.2-3.2
					C1256.6,238.4,1258,239.9,1258,241.7z"/>
			</g>
			<g>
				<path class="st1" d="M1150,241.7c0,1.8-1.5,3.2-3.2,3.2c-1.8,0-3.2-1.5-3.2-3.2c0-1.8,1.5-3.2,3.2-3.2
					C1148.6,238.4,1150,239.9,1150,241.7z"/>
			</g>
			<g>
				<path class="st1" d="M1042,241.7c0,1.8-1.5,3.2-3.2,3.2c-1.8,0-3.2-1.5-3.2-3.2c0-1.8,1.5-3.2,3.2-3.2
					C1040.6,238.4,1042,239.9,1042,241.7z"/>
			</g>
			<g>
				<path class="st1" d="M934,241.7c0,1.8-1.5,3.2-3.2,3.2c-1.8,0-3.2-1.5-3.2-3.2c0-1.8,1.5-3.2,3.2-3.2
					C932.6,238.4,934,239.9,934,241.7z"/>
			</g>
			<g>
				<path class="st1" d="M826,241.7c0,1.8-1.5,3.2-3.2,3.2c-1.8,0-3.2-1.5-3.2-3.2c0-1.8,1.5-3.2,3.2-3.2
					C824.6,238.4,826,239.9,826,241.7z"/>
			</g>
			<g>
				<path class="st1" d="M718,241.7c0,1.8-1.5,3.2-3.2,3.2c-1.8,0-3.2-1.5-3.2-3.2c0-1.8,1.5-3.2,3.2-3.2
					C716.6,238.4,718,239.9,718,241.7z"/>
			</g>
			<g>
				<path class="st1" d="M610,241.7c0,1.8-1.5,3.2-3.2,3.2c-1.8,0-3.2-1.5-3.2-3.2c0-1.8,1.5-3.2,3.2-3.2
					C608.6,238.4,610,239.9,610,241.7z"/>
			</g>
			<g>
				<path class="st1" d="M502,241.7c0,1.8-1.5,3.2-3.2,3.2c-1.8,0-3.2-1.5-3.2-3.2c0-1.8,1.5-3.2,3.2-3.2
					C500.6,238.4,502,239.9,502,241.7z"/>
			</g>
			<g>
				<path class="st1" d="M394,241.7c0,1.8-1.5,3.2-3.2,3.2c-1.8,0-3.2-1.5-3.2-3.2c0-1.8,1.5-3.2,3.2-3.2
					C392.6,238.4,394,239.9,394,241.7z"/>
			</g>
			<g>
				<path class="st1" d="M286,241.7c0,1.8-1.5,3.2-3.2,3.2c-1.8,0-3.2-1.5-3.2-3.2c0-1.8,1.5-3.2,3.2-3.2
					C284.6,238.4,286,239.9,286,241.7z"/>
			</g>
			<g>
				<path class="st1" d="M178,241.7c0,1.8-1.5,3.2-3.2,3.2c-1.8,0-3.2-1.5-3.2-3.2c0-1.8,1.5-3.2,3.2-3.2
					C176.6,238.4,178,239.9,178,241.7z"/>
			</g>
			<g>
				<path class="st1" d="M70,241.7c0,1.8-1.5,3.2-3.2,3.2c-1.8,0-3.2-1.5-3.2-3.2c0-1.8,1.5-3.2,3.2-3.2
					C68.6,238.4,70,239.9,70,241.7z"/>
			</g>
		</g>
		<g>
			<g>
				<path class="st1" d="M1690,153.7c0,1.8-1.5,3.2-3.2,3.2c-1.8,0-3.2-1.5-3.2-3.2c0-1.8,1.5-3.2,3.2-3.2
					C1688.6,150.4,1690,151.9,1690,153.7z"/>
			</g>
			<g>
				<path class="st1" d="M1582,153.7c0,1.8-1.5,3.2-3.2,3.2c-1.8,0-3.2-1.5-3.2-3.2c0-1.8,1.5-3.2,3.2-3.2
					C1580.6,150.4,1582,151.9,1582,153.7z"/>
			</g>
			<g>
				<path class="st1" d="M1474,153.7c0,1.8-1.5,3.2-3.2,3.2c-1.8,0-3.2-1.5-3.2-3.2c0-1.8,1.5-3.2,3.2-3.2
					C1472.6,150.4,1474,151.9,1474,153.7z"/>
			</g>
			<g>
				<path class="st1" d="M1366,153.7c0,1.8-1.5,3.2-3.2,3.2c-1.8,0-3.2-1.5-3.2-3.2c0-1.8,1.5-3.2,3.2-3.2
					C1364.6,150.4,1366,151.9,1366,153.7z"/>
			</g>
			<g>
				<path class="st1" d="M1258,153.7c0,1.8-1.5,3.2-3.2,3.2c-1.8,0-3.2-1.5-3.2-3.2c0-1.8,1.5-3.2,3.2-3.2
					C1256.6,150.4,1258,151.9,1258,153.7z"/>
			</g>
			<g>
				<path class="st1" d="M1150,153.7c0,1.8-1.5,3.2-3.2,3.2c-1.8,0-3.2-1.5-3.2-3.2c0-1.8,1.5-3.2,3.2-3.2
					C1148.6,150.4,1150,151.9,1150,153.7z"/>
			</g>
			<g>
				<path class="st1" d="M1042,153.7c0,1.8-1.5,3.2-3.2,3.2c-1.8,0-3.2-1.5-3.2-3.2c0-1.8,1.5-3.2,3.2-3.2
					C1040.6,150.4,1042,151.9,1042,153.7z"/>
			</g>
			<g>
				<path class="st1" d="M934,153.7c0,1.8-1.5,3.2-3.2,3.2c-1.8,0-3.2-1.5-3.2-3.2c0-1.8,1.5-3.2,3.2-3.2
					C932.6,150.4,934,151.9,934,153.7z"/>
			</g>
			<g>
				<path class="st1" d="M826,153.7c0,1.8-1.5,3.2-3.2,3.2c-1.8,0-3.2-1.5-3.2-3.2c0-1.8,1.5-3.2,3.2-3.2
					C824.6,150.4,826,151.9,826,153.7z"/>
			</g>
			<g>
				<path class="st1" d="M718,153.7c0,1.8-1.5,3.2-3.2,3.2c-1.8,0-3.2-1.5-3.2-3.2c0-1.8,1.5-3.2,3.2-3.2
					C716.6,150.4,718,151.9,718,153.7z"/>
			</g>
			<g>
				<path class="st1" d="M610,153.7c0,1.8-1.5,3.2-3.2,3.2c-1.8,0-3.2-1.5-3.2-3.2c0-1.8,1.5-3.2,3.2-3.2
					C608.6,150.4,610,151.9,610,153.7z"/>
			</g>
			<g>
				<path class="st1" d="M502,153.7c0,1.8-1.5,3.2-3.2,3.2c-1.8,0-3.2-1.5-3.2-3.2c0-1.8,1.5-3.2,3.2-3.2
					C500.6,150.4,502,151.9,502,153.7z"/>
			</g>
			<g>
				<path class="st1" d="M394,153.7c0,1.8-1.5,3.2-3.2,3.2c-1.8,0-3.2-1.5-3.2-3.2c0-1.8,1.5-3.2,3.2-3.2
					C392.6,150.4,394,151.9,394,153.7z"/>
			</g>
			<g>
				<path class="st1" d="M286,153.7c0,1.8-1.5,3.2-3.2,3.2c-1.8,0-3.2-1.5-3.2-3.2c0-1.8,1.5-3.2,3.2-3.2
					C284.6,150.4,286,151.9,286,153.7z"/>
			</g>
			<g>
				<path class="st1" d="M178,153.7c0,1.8-1.5,3.2-3.2,3.2c-1.8,0-3.2-1.5-3.2-3.2c0-1.8,1.5-3.2,3.2-3.2
					C176.6,150.4,178,151.9,178,153.7z"/>
			</g>
			<g>
				<path class="st1" d="M70,153.7c0,1.8-1.5,3.2-3.2,3.2c-1.8,0-3.2-1.5-3.2-3.2c0-1.8,1.5-3.2,3.2-3.2
					C68.6,150.4,70,151.9,70,153.7z"/>
			</g>
		</g>
		<g>
			<g>
				<path class="st1" d="M1690,65.7c0,1.8-1.5,3.2-3.2,3.2c-1.8,0-3.2-1.5-3.2-3.2c0-1.8,1.5-3.2,3.2-3.2
					C1688.6,62.4,1690,63.9,1690,65.7z"/>
			</g>
			<g>
				<path class="st1" d="M1582,65.7c0,1.8-1.5,3.2-3.2,3.2c-1.8,0-3.2-1.5-3.2-3.2c0-1.8,1.5-3.2,3.2-3.2
					C1580.6,62.4,1582,63.9,1582,65.7z"/>
			</g>
			<g>
				<path class="st1" d="M1474,65.7c0,1.8-1.5,3.2-3.2,3.2c-1.8,0-3.2-1.5-3.2-3.2c0-1.8,1.5-3.2,3.2-3.2
					C1472.6,62.4,1474,63.9,1474,65.7z"/>
			</g>
			<g>
				<path class="st1" d="M1366,65.7c0,1.8-1.5,3.2-3.2,3.2c-1.8,0-3.2-1.5-3.2-3.2c0-1.8,1.5-3.2,3.2-3.2
					C1364.6,62.4,1366,63.9,1366,65.7z"/>
			</g>
			<g>
				<path class="st1" d="M1258,65.7c0,1.8-1.5,3.2-3.2,3.2c-1.8,0-3.2-1.5-3.2-3.2c0-1.8,1.5-3.2,3.2-3.2 C1256.6,62.4,1258,63.9,1258,65.7z"/>
			</g>
			<g>
				<path class="st1" d="M1150,65.7c0,1.8-1.5,3.2-3.2,3.2c-1.8,0-3.2-1.5-3.2-3.2c0-1.8,1.5-3.2,3.2-3.2 C1148.6,62.4,1150,63.9,1150,65.7z"/>
			</g>
			<g>
				<path class="st1" d="M1042,65.7c0,1.8-1.5,3.2-3.2,3.2c-1.8,0-3.2-1.5-3.2-3.2c0-1.8,1.5-3.2,3.2-3.2 C1040.6,62.4,1042,63.9,1042,65.7z"/>
			</g>
			<g>
				<path class="st1" d="M934,65.7c0,1.8-1.5,3.2-3.2,3.2c-1.8,0-3.2-1.5-3.2-3.2c0-1.8,1.5-3.2,3.2-3.2 C932.6,62.4,934,63.9,934,65.7z"/>
			</g>
			<g>
				<path class="st1" d="M826,65.7c0,1.8-1.5,3.2-3.2,3.2c-1.8,0-3.2-1.5-3.2-3.2c0-1.8,1.5-3.2,3.2-3.2 C824.6,62.4,826,63.9,826,65.7z"/>
			</g>
			<g>
				<path class="st1" d="M718,65.7c0,1.8-1.5,3.2-3.2,3.2c-1.8,0-3.2-1.5-3.2-3.2c0-1.8,1.5-3.2,3.2-3.2 C716.6,62.4,718,63.9,718,65.7z"/>
			</g>
			<g>
				<path class="st1" d="M610,65.7c0,1.8-1.5,3.2-3.2,3.2c-1.8,0-3.2-1.5-3.2-3.2c0-1.8,1.5-3.2,3.2-3.2 C608.6,62.4,610,63.9,610,65.7z"/>
			</g>
			<g>
				<path class="st1" d="M502,65.7c0,1.8-1.5,3.2-3.2,3.2c-1.8,0-3.2-1.5-3.2-3.2c0-1.8,1.5-3.2,3.2-3.2 C500.6,62.4,502,63.9,502,65.7z"/>
			</g>
			<g>
				<path class="st1" d="M394,65.7c0,1.8-1.5,3.2-3.2,3.2c-1.8,0-3.2-1.5-3.2-3.2c0-1.8,1.5-3.2,3.2-3.2 C392.6,62.4,394,63.9,394,65.7z"/>
			</g>
			<g>
				<path class="st1" d="M286,65.7c0,1.8-1.5,3.2-3.2,3.2c-1.8,0-3.2-1.5-3.2-3.2c0-1.8,1.5-3.2,3.2-3.2 C284.6,62.4,286,63.9,286,65.7z"/>
			</g>
			<g>
				<path class="st1" d="M178,65.7c0,1.8-1.5,3.2-3.2,3.2c-1.8,0-3.2-1.5-3.2-3.2c0-1.8,1.5-3.2,3.2-3.2 C176.6,62.4,178,63.9,178,65.7z"/>
			</g>
			<g>
				<path class="st1" d="M70,65.7c0,1.8-1.5,3.2-3.2,3.2c-1.8,0-3.2-1.5-3.2-3.2c0-1.8,1.5-3.2,3.2-3.2C68.6,62.4,70,63.9,70,65.7z" />
			</g>
		</g>
	</g>
</g>
</svg>
