<?xml version="1.0" encoding="utf-8"?>
<!-- Generator: Adobe Illustrator 24.0.3, SVG Export Plug-In . SVG Version: 6.00 Build 0)  -->
<svg version="1.1" id="Layer_1" xmlns="http://www.w3.org/2000/svg" xmlns:xlink="http://www.w3.org/1999/xlink" x="0px" y="0px"
	 viewBox="0 0 239.2 199.3" style="enable-background:new 0 0 239.2 199.3;" xml:space="preserve">
<style type="text/css">
	.st0{fill:#418CCB;}
	.st1{fill:#454545;fill-opacity:7.000000e-02;}
	.st2{fill:#010101;fill-opacity:7.000000e-02;}
	.st3{fill:#ACABAB;fill-opacity:7.000000e-02;}
	.st4{fill:#DDDDDD;fill-opacity:7.000000e-02;}
	.st5{fill:#989898;fill-opacity:7.000000e-02;}
	.st6{fill:#FFFFFF;fill-opacity:7.000000e-02;}
	.st7{fill:#676767;fill-opacity:7.000000e-02;}
	.st8{fill:#222222;fill-opacity:7.000000e-02;}
	.st9{fill:#222222;}
</style>
<rect class="st0" width="239.2" height="199.3"/>
<polygon class="st1" points="19.9,33.2 0,66.4 39.9,66.4 "/>
<polygon class="st2" points="19.9,33.2 39.9,0 0,0 "/>
<polygon class="st3" points="59.8,33.2 79.7,0 39.9,0 "/>
<polygon class="st4" points="99.7,33.2 79.7,66.4 119.6,66.4 "/>
<polygon class="st5" points="99.7,33.2 119.6,0 79.7,0 "/>
<polygon class="st2" points="139.5,33.2 119.6,66.4 159.5,66.4 "/>
<polygon class="st4" points="139.5,33.2 159.5,0 119.6,0 "/>
<polygon class="st1" points="179.4,33.2 159.5,66.4 199.3,66.4 "/>
<polygon class="st6" points="179.4,33.2 199.3,0 159.5,0 "/>
<polygon class="st4" points="219.3,33.2 199.3,66.4 239.2,66.4 "/>
<polygon class="st1" points="219.3,33.2 239.2,0 199.3,0 "/>
<polygon class="st4" points="19.9,99.7 0,132.9 39.9,132.9 "/>
<polygon class="st2" points="19.9,99.7 39.9,66.4 0,66.4 "/>
<polygon class="st7" points="59.8,99.7 39.9,132.9 79.7,132.9 "/>
<polygon class="st3" points="59.8,99.7 79.7,66.4 39.9,66.4 "/>
<polygon class="st4" points="99.7,99.7 79.7,132.9 119.6,132.9 "/>
<polygon class="st5" points="99.7,99.7 119.6,66.4 79.7,66.4 "/>
<polygon class="st5" points="139.5,99.7 119.6,132.9 159.5,132.9 "/>
<polygon class="st6" points="139.5,99.7 159.5,66.4 119.6,66.4 "/>
<polygon class="st2" points="179.4,99.7 159.5,132.9 199.3,132.9 "/>
<polygon class="st4" points="179.4,99.7 199.3,66.4 159.5,66.4 "/>
<polygon class="st3" points="219.3,99.7 199.3,132.9 239.2,132.9 "/>
<polygon class="st1" points="219.3,99.7 239.2,66.4 199.3,66.4 "/>
<polygon class="st8" points="19.9,166.1 0,199.3 39.9,199.3 "/>
<polygon class="st2" points="59.8,166.1 39.9,199.3 79.7,199.3 "/>
<polygon class="st4" points="59.8,166.1 79.7,132.9 39.9,132.9 "/>
<polygon class="st2" points="99.7,166.1 119.6,132.9 79.7,132.9 "/>
<polygon class="st2" points="139.5,166.1 119.6,199.3 159.5,199.3 "/>
<polygon class="st1" points="139.5,166.1 159.5,132.9 119.6,132.9 "/>
<polygon class="st3" points="179.4,166.1 159.5,199.3 199.3,199.3 "/>
<polygon class="st7" points="179.4,166.1 199.3,132.9 159.5,132.9 "/>
<polygon class="st5" points="219.3,166.1 199.3,199.3 239.2,199.3 "/>
<polygon class="st5" points="39.9,0 19.9,33.2 59.8,33.2 "/>
<polygon class="st1" points="79.7,0 59.8,33.2 99.7,33.2 "/>
<polygon class="st6" points="119.6,0 99.7,33.2 139.5,33.2 "/>
<polygon class="st2" points="199.3,0 179.4,33.2 219.3,33.2 "/>
<polygon class="st6" points="39.9,66.4 19.9,99.7 59.8,99.7 "/>
<polygon class="st7" points="39.9,66.4 59.8,33.2 19.9,33.2 "/>
<polygon class="st8" points="79.7,66.4 59.8,99.7 99.7,99.7 "/>
<polygon class="st6" points="79.7,66.4 99.7,33.2 59.8,33.2 "/>
<polygon class="st1" points="119.6,66.4 99.7,99.7 139.5,99.7 "/>
<polygon class="st8" points="119.6,66.4 139.5,33.2 99.7,33.2 "/>
<polygon class="st3" points="159.5,66.4 139.5,99.7 179.4,99.7 "/>
<polygon class="st7" points="159.5,66.4 179.4,33.2 139.5,33.2 "/>
<polygon class="st6" points="199.3,66.4 179.4,99.7 219.3,99.7 "/>
<polygon class="st5" points="199.3,66.4 219.3,33.2 179.4,33.2 "/>
<polygon class="st3" points="39.9,132.9 19.9,166.1 59.8,166.1 "/>
<polygon class="st1" points="39.9,132.9 59.8,99.7 19.9,99.7 "/>
<polygon class="st1" points="79.7,132.9 59.8,166.1 99.7,166.1 "/>
<polygon class="st5" points="79.7,132.9 99.7,99.7 59.8,99.7 "/>
<polygon class="st7" points="119.6,132.9 139.5,99.7 99.7,99.7 "/>
<polygon class="st8" points="159.5,132.9 139.5,166.1 179.4,166.1 "/>
<polygon class="st6" points="199.3,132.9 179.4,166.1 219.3,166.1 "/>
<polygon class="st8" points="199.3,132.9 219.3,99.7 179.4,99.7 "/>
<polygon class="st1" points="39.9,199.3 59.8,166.1 19.9,166.1 "/>
<polygon class="st6" points="79.7,199.3 99.7,166.1 59.8,166.1 "/>
<polygon class="st3" points="119.6,199.3 139.5,166.1 99.7,166.1 "/>
<polygon class="st6" points="159.5,199.3 179.4,166.1 139.5,166.1 "/>
<polygon class="st8" points="199.3,199.3 219.3,166.1 179.4,166.1 "/>
<polyline class="st2" points="219.3,166.1 239.2,132.9 239.2,166.1 "/>
<polyline class="st4" points="239.2,199.3 239.2,166.1 219.3,166.1 "/>
<polyline class="st6" points="0,66.4 0,33.2 19.9,33.2 "/>
<polyline class="st8" points="19.9,99.7 0,66.4 0,99.7 "/>
<polyline class="st6" points="239.2,66.4 239.2,33.2 219.3,33.2 "/>
<path class="st9" d="M219.3,99.7"/>
<polyline class="st8" points="239.2,66.4 239.2,99.7 219.3,99.7 "/>
<polyline class="st2" points="19.9,166.1 0,166.1 0,132.9 "/>
<polyline class="st4" points="0,199.3 0,166.1 19.9,166.1 "/>
<polyline class="st7" points="0,132.9 0,99.7 19.9,99.7 "/>
<polyline class="st2" points="19.9,166.1 0,132.9 0,166.1 "/>
<polyline class="st7" points="239.2,132.9 239.2,99.7 219.3,99.7 "/>
</svg>
