<svg xmlns="http://www.w3.org/2000/svg" viewBox="0 0 1770 450"><path fill="#b7c2cc" d="M1017 0L599 450h857z"/><path fill="#a5b2bd" d="M1017 0l-84 450h523z"/><path fill="#9aa7b2" d="M0 450l458-238 418 238z"/><path fill="#8795a0" d="M397 450l61-238 418 238z"/><path fill="#7f8c98" d="M1263 96l349 354H936z"/><path fill="#6b7884" d="M1263 96l349 354h-390z"/><path fill="#647380" d="M701 245l245 205H427z"/><path fill="#505d69" d="M647 450l54-205 245 205z"/><path fill="#4a5a68" d="M1770 450l-309-268-305 268z"/><path fill="#36434f" d="M1770 450l-309-268-36 268z"/><path fill="#314351" d="M1270 450l-239-213-246 213z"/><path fill="#1d2b36" d="M1003 450h267l-239-213z"/></svg>