<?xml version="1.0" encoding="utf-8"?>
<!-- Generator: Adobe Illustrator 24.0.3, SVG Export Plug-In . SVG Version: 6.00 Build 0)  -->
<svg version="1.1" id="Layer_1" xmlns="http://www.w3.org/2000/svg" xmlns:xlink="http://www.w3.org/1999/xlink" x="0px" y="0px"
	 viewBox="0 0 102.2 42.8" style="enable-background:new 0 0 102.2 42.8;" xml:space="preserve">
<style type="text/css">
	.st0{fill:#418DCB;}
	.st1{fill:#1E2B36;}
	.st2{fill:#909FB0;}
</style>
<g>
	<g>
		<path class="st0" d="M90.3,9.1L63.1,36.3c1.1,1.2,2.5,1.9,4.4,1.9c0.7,0,1.4,0,2.1,0l23.1-23.1C92.5,12.5,92,10.5,90.3,9.1z"/>
		<path class="st0" d="M82,6.7c-3.2-0.2-6.2-0.4-9.3-0.6L55.7,23.1c2,1.8,3.1,4.7,4.1,7.1c0.3,0.8,0.7,1.6,1,2.3L86.1,7.3
			C84.9,7,83.6,6.8,82,6.7z"/>
		<path class="st0" d="M51.1,5.6c-1,0-2,0-2.9,0L18.6,35.2c1.8,0.9,3.9,1.7,6.2,2.2L56.5,5.7C54.8,5.7,53,5.6,51.1,5.6z"/>
		<path class="st0" d="M26.9,6.3L9.6,23.6c0.2,2.2,0.7,3.4,2.2,5.5c1,1.4,2,2.6,3.2,3.6L42,5.7C36.5,5.8,31.7,6,26.9,6.3z"/>
	</g>
</g>
<g>
	<path class="st1" d="M90.9,3l-1,0.4c7.3,2.5,8.1,8.1,8.1,14.1l0,1.1c0,6.4,0,8.5-3.1,13c-1.3,1.9-2.8,3.5-4.4,4.9l1.1,0.5
		c0,0,4.6-3,7.2-10.6V11.8C98.6,11.8,97.9,5.3,90.9,3z"/>
</g>
<g>
	<path class="st1" d="M7.4,31.7c-3.1-4.5-3.1-6.6-3.1-13l0-1.1c0-6,0.7-11.6,8.1-14.1l-1-0.4c-7,2.3-7.8,8.8-7.8,8.8v14.7
		c2.6,7.6,7.2,10.6,7.2,10.6l1.1-0.5C10.1,35.2,8.7,33.6,7.4,31.7z"/>
</g>
<path class="st1" d="M51.1,0.7c7.6,0,13.7,0.1,19.4,0.4V0.4C64.8,0.1,58.7,0,51.1,0c-7.6,0-13.6,0.1-19.3,0.4v0.7
	C37.5,0.9,43.6,0.7,51.1,0.7z"/>
<path class="st1" d="M54.8,32.2c-1.4-3.4-2.3-5.5-3.7-5.5c-1.4,0-2.4,2.1-3.7,5.5c-1.4,3.4-3.2,8.2-7.5,10.3
	c3.2-0.5,6.3-1.8,7.6-5.3c2-5.5,2.5-7.6,3.6-7.6c1.1,0,1.7,2.1,3.6,7.6c1.3,3.5,4.4,4.8,7.6,5.3C58.1,40.4,56.2,35.6,54.8,32.2z"/>
<path class="st2" d="M97.2,18.7l0-1.1c0-7.6-1.1-14.4-14.9-15.4C72.6,1.5,64,1.1,51.1,1.1c-12.9,0-21.5,0.4-31.2,1.1
	C6.1,3.2,5,10,5,17.6l0,1.1c0,6.4,0,8.5,3.1,13c5.4,7.8,13.4,11.1,26.7,11.1c7.4,0,10-6.3,11.8-10.9c1.5-3.8,2.5-6.1,4.6-6.1
	c2,0,3.1,2.3,4.6,6.1c1.8,4.6,4.3,10.9,11.8,10.9c13.3,0,21.3-3.3,26.7-11.1C97.2,27.2,97.2,25.1,97.2,18.7z M20,38.8
	c-1.7-0.6-3.2-1.4-4.7-2.4c-1.5-1-2.9-2.1-4-3.4c-1.2-1.3-2.1-2.8-2.9-4.4c0.5,0.7,0.9,1.5,1.5,2.1l0.8,1l0.9,0.9
	c1.2,1.2,2.6,2.3,4,3.2c1.4,0.9,3,1.8,4.6,2.5c0.8,0.3,1.6,0.7,2.4,1c0.8,0.3,1.7,0.6,2.5,0.8C23.3,39.8,21.6,39.4,20,38.8z
	 M59,30.5c-1.6-3.9-3.3-8.4-7.9-8.4c-4.6,0-6.4,4.4-7.9,8.4c-2.1,5.2-3.8,8.6-8.4,8.6c-12.1,0-19-2.8-23.7-9.5
	c-2.5-3.6-2.5-4.8-2.5-11l0-1.1c0-6.8,0.6-11,11.5-11.8c9.6-0.7,18.1-1.1,30.9-1.1c12.8,0,21.3,0.4,30.9,1.1
	c11,0.8,11.5,5,11.5,11.8l0,1.1c0,6.1,0,7.4-2.5,11c-4.7,6.8-11.5,9.5-23.7,9.5C62.8,39.2,61.1,35.7,59,30.5z M91,32.9
	c-1.2,1.3-2.5,2.5-4,3.4c-1.5,1-3.1,1.8-4.7,2.4c-1.7,0.6-3.4,1.1-5.1,1.3c0.8-0.2,1.7-0.5,2.5-0.8c0.8-0.3,1.6-0.6,2.4-1
	c1.6-0.7,3.1-1.5,4.6-2.5c1.5-0.9,2.8-2,4-3.2l0.9-0.9l0.8-1c0.6-0.6,1-1.4,1.5-2.1C93.1,30.1,92.2,31.7,91,32.9z"/>
<g>
	<path class="st1" d="M100.1,10.9h-1.4c0.1,0.5,0.2,0.9,0.2,0.9v14.7c-0.3,0.9-0.6,1.6-1,2.4h2.1c1.1,0,2.1-0.9,2.1-2.1V13
		C102.2,11.9,101.2,10.9,100.1,10.9z"/>
	<path class="st1" d="M3.2,26.5V11.8c0,0,0-0.3,0.2-0.9H2.1C0.9,10.9,0,11.9,0,13v13.8c0,1.1,0.9,2.1,2.1,2.1h2.1
		C3.9,28.1,3.5,27.3,3.2,26.5z"/>
</g>
</svg>
