<?xml version="1.0" encoding="utf-8"?>
<!-- Generator: Adobe Illustrator 24.0.3, SVG Export Plug-In . SVG Version: 6.00 Build 0)  -->
<svg version="1.1" id="Layer_1" xmlns="http://www.w3.org/2000/svg" xmlns:xlink="http://www.w3.org/1999/xlink" x="0px" y="0px"
	 viewBox="0 0 300 250" style="enable-background:new 0 0 300 250;" xml:space="preserve">
<style type="text/css">
	.st0{fill:#1292EE;}
	.st1{fill:#444444;fill-opacity:7.000000e-02;}
	.st2{fill-opacity:7.000000e-02;}
	.st3{fill:#AAAAAA;fill-opacity:7.000000e-02;}
	.st4{fill:#DDDDDD;fill-opacity:7.000000e-02;}
	.st5{fill:#999999;fill-opacity:7.000000e-02;}
	.st6{fill:#FFFFFF;fill-opacity:7.000000e-02;}
	.st7{fill:#666666;fill-opacity:7.000000e-02;}
	.st8{fill:#222222;fill-opacity:7.000000e-02;}
	.st9{fill:#222222;}
</style>
<rect y="0" class="st0" width="300" height="250"/>
<polygon class="st1" points="25,41.7 0,83.3 50,83.3 "/>
<polygon class="st2" points="25,41.7 50,0 0,0 "/>
<polygon class="st3" points="75,41.7 100,0 50,0 "/>
<polygon class="st4" points="125,41.7 100,83.3 150,83.3 "/>
<polygon class="st5" points="125,41.7 150,0 100,0 "/>
<polygon class="st2" points="175,41.7 150,83.3 200,83.3 "/>
<polygon class="st4" points="175,41.7 200,0 150,0 "/>
<polygon class="st1" points="225,41.7 200,83.3 250,83.3 "/>
<polygon class="st6" points="225,41.7 250,0 200,0 "/>
<polygon class="st4" points="275,41.7 250,83.3 300,83.3 "/>
<polygon class="st1" points="275,41.7 300,0 250,0 "/>
<polygon class="st4" points="25,125 0,166.7 50,166.7 "/>
<polygon class="st2" points="25,125 50,83.3 0,83.3 "/>
<polygon class="st7" points="75,125 50,166.7 100,166.7 "/>
<polygon class="st3" points="75,125 100,83.3 50,83.3 "/>
<polygon class="st4" points="125,125 100,166.7 150,166.7 "/>
<polygon class="st5" points="125,125 150,83.3 100,83.3 "/>
<polygon class="st5" points="175,125 150,166.7 200,166.7 "/>
<polygon class="st6" points="175,125 200,83.3 150,83.3 "/>
<polygon class="st2" points="225,125 200,166.7 250,166.7 "/>
<polygon class="st4" points="225,125 250,83.3 200,83.3 "/>
<polygon class="st3" points="275,125 250,166.7 300,166.7 "/>
<polygon class="st1" points="275,125 300,83.3 250,83.3 "/>
<polygon class="st8" points="25,208.3 0,250 50,250 "/>
<polygon class="st2" points="75,208.3 50,250 100,250 "/>
<polygon class="st4" points="75,208.3 100,166.7 50,166.7 "/>
<polygon class="st2" points="125,208.3 150,166.7 100,166.7 "/>
<polygon class="st2" points="175,208.3 150,250 200,250 "/>
<polygon class="st1" points="175,208.3 200,166.7 150,166.7 "/>
<polygon class="st3" points="225,208.3 200,250 250,250 "/>
<polygon class="st7" points="225,208.3 250,166.7 200,166.7 "/>
<polygon class="st5" points="275,208.3 250,250 300,250 "/>
<polygon class="st5" points="50,0 25,41.7 75,41.7 "/>
<polygon class="st1" points="100,0 75,41.7 125,41.7 "/>
<polygon class="st6" points="150,0 125,41.7 175,41.7 "/>
<polygon class="st2" points="250,0 225,41.7 275,41.7 "/>
<polygon class="st6" points="50,83.3 25,125 75,125 "/>
<polygon class="st7" points="50,83.3 75,41.7 25,41.7 "/>
<polygon class="st8" points="100,83.3 75,125 125,125 "/>
<polygon class="st6" points="100,83.3 125,41.7 75,41.7 "/>
<polygon class="st1" points="150,83.3 125,125 175,125 "/>
<polygon class="st8" points="150,83.3 175,41.7 125,41.7 "/>
<polygon class="st3" points="200,83.3 175,125 225,125 "/>
<polygon class="st7" points="200,83.3 225,41.7 175,41.7 "/>
<polygon class="st6" points="250,83.3 225,125 275,125 "/>
<polygon class="st5" points="250,83.3 275,41.7 225,41.7 "/>
<polygon class="st3" points="50,166.7 25,208.3 75,208.3 "/>
<polygon class="st1" points="50,166.7 75,125 25,125 "/>
<polygon class="st1" points="100,166.7 75,208.3 125,208.3 "/>
<polygon class="st5" points="100,166.7 125,125 75,125 "/>
<polygon class="st7" points="150,166.7 175,125 125,125 "/>
<polygon class="st8" points="200,166.7 175,208.3 225,208.3 "/>
<polygon class="st6" points="250,166.7 225,208.3 275,208.3 "/>
<polygon class="st8" points="250,166.7 275,125 225,125 "/>
<polygon class="st1" points="50,250 75,208.3 25,208.3 "/>
<polygon class="st6" points="100,250 125,208.3 75,208.3 "/>
<polygon class="st3" points="150,250 175,208.3 125,208.3 "/>
<polygon class="st6" points="200,250 225,208.3 175,208.3 "/>
<polygon class="st8" points="250,250 275,208.3 225,208.3 "/>
<polyline class="st2" points="275,208.3 300,166.7 300,208.3 "/>
<polyline class="st4" points="300,250 300,208.3 275,208.3 "/>
<polyline class="st6" points="0,83.3 0,41.7 25,41.7 "/>
<polyline class="st8" points="25,125 0,83.3 0,125 "/>
<polyline class="st6" points="300,83.3 300,41.7 275,41.7 "/>
<path class="st9" d="M275,125"/>
<polyline class="st8" points="300,83.3 300,125 275,125 "/>
<polyline class="st2" points="25,208.3 0,208.3 0,166.7 "/>
<polyline class="st4" points="0,250 0,208.3 25,208.3 "/>
<polyline class="st7" points="0,166.7 0,125 25,125 "/>
<polyline class="st2" points="25,208.3 0,166.7 0,208.3 "/>
<polyline class="st7" points="300,166.7 300,125 275,125 "/>
</svg>
