<svg xmlns="http://www.w3.org/2000/svg" xmlns:xlink="http://www.w3.org/1999/xlink" id="Layer_1" x="0" y="0" version="1.1" viewBox="0 0 275.5 152.7" xml:space="preserve" style="enable-background:new 0 0 275.5 152.7"><style type="text/css">.st0{fill:#788593}.st1{fill:#fec65a}.st2{fill:#fff}</style><path d="M238.8,82.2C215.3,90.3,191.1,94,166,96c-2.8,18.6-5.5,37.3-8.4,56.7c-2.2,0-4.3,0-6.4,0c-7.3,0-14.7,0-22,0	c-10.8,0-10.7,0-12.2-11c-1.9-14.2-4-28.3-6.3-42.5c-0.2-1.3-2.2-3.2-3.6-3.4c-11.8-1.8-23.8-2.8-35.6-5c-11.6-2.1-23-5.3-34.5-8.1	c0,7.1-0.2,14.7,0.1,22.2c0.2,5-0.3,9.4-3.9,13.4c-2.5,2.8-4.8,3.4-7.7,1.3c-4.3-3.1-8.6-6.3-12.6-9.8c-1.5-1.3-2.5-3.5-2.9-5.5	c-3.4-16.6-7.1-33.2-9.6-50c-1.9-11,3.9-19.7,12.5-26.4c11.7-9,25.3-14,39.5-17.4c60.1-14.4,120.2-14.3,179.8,2.6	c10.7,3,21,8.6,30.4,14.5c11,6.9,15,17.4,12,30.6c-3.3,14.3-5.9,28.7-8.4,43.1c-0.9,5-2.8,8.7-7.1,11.3c-2.1,1.3-3.8,3.3-6,4.5	c-2.8,1.4-7.4,4-8.5,3c-3-2.7-5.7-6.8-6.3-10.6c-0.9-6,0.2-12.3,0.4-18.4C238.9,88.3,238.8,85.5,238.8,82.2z M141.4,84.8	c7.6,0,14.8,0,22.4,0c-0.7-6-1.3-11.4-2-16.8c-7,0-13.6,0-20.4,0C141.4,73.7,141.4,79.1,141.4,84.8z M114.3,67.9	c-0.6,5.8-1.2,11.2-1.8,17.1c7.8,0,14.9,0,22.1,0c0-5.8,0-11.3,0-17.1C127.8,67.9,121.3,67.9,114.3,67.9z M170.4,84.4	c7.9-1,15.1-1.9,22.6-2.8c-1.3-5.3-2.3-9.4-3.4-13.6c-7.1,0-13.9,0-21,0C169.2,73.4,169.7,78.4,170.4,84.4z M107.6,67.7	c-6.5,0-12.7-0.1-18.8,0.1c-0.9,0-2.4,0.9-2.6,1.6c-1.1,3.9-1.9,7.9-2.9,12.4c7.8,0.9,15,1.6,22.4,2.4	C106.4,78.3,107,73.3,107.6,67.7z M32.5,61c6.6,0,12.7,0,18.8-0.1c0.8,0,2.1-0.6,2.4-1.2c1.4-3.2,2.5-6.6,3.8-10.1	C38.8,47.7,37.3,48.3,32.5,61z M218.6,49.3c1.4,3.8,2.4,6.9,3.7,9.9c0.4,0.8,1.7,1.7,2.6,1.7c6.2,0.2,12.5,0.1,19.5,0.1	c-1.9-3.8-3.4-6.9-5.1-9.9c-0.5-0.8-1.7-1.8-2.6-1.8C230.8,49.2,225.1,49.3,218.6,49.3z M84.1,49.3c-6.1,0-11.7-0.1-17.3,0.1	c-0.9,0-2.2,1-2.6,1.8c-1.3,3-2.3,6.1-3.6,9.8c6.6,0,12.5,0.1,18.4-0.1c1,0,2.5-1.1,2.8-2C82.8,56,83.3,52.9,84.1,49.3z M192.1,49.3	c0.8,3.5,1.3,6.4,2.2,9.2c0.3,1,1.6,2.4,2.5,2.4c6.1,0.2,12.1,0.1,18.9,0.1c-1.3-3.7-2.3-6.7-3.6-9.5c-0.4-1-1.8-2.1-2.8-2.1	C203.7,49.2,198.1,49.3,192.1,49.3z M187.8,60.8c-0.8-3.3-1.3-6.4-2.2-9.3c-0.3-0.9-1.4-2.1-2.2-2.1c-5.5-0.2-11.1-0.1-17-0.1	c0.5,4.3,0.9,7.9,1.3,11.5C174.6,60.8,181,60.8,187.8,60.8z M196.5,67.7c1.1,4.5,2,8.4,3,13c7.4-1.6,14.4-3.2,23-5.1	c-2.7-3.3-4.4-7.3-6.6-7.6C209.9,67.1,203.5,67.7,196.5,67.7z M91.1,49.6c-0.9,3.6-1.7,7.2-2.8,11.5c6.3,0,12.1,0.1,17.9-0.1	c0.9,0,2.4-1.3,2.5-2.2c0.6-2.9,0.7-5.9,1-9.1C103.4,49.6,97.4,49.6,91.1,49.6z M141.4,60.7c6.8,0,13.1,0,19.6,0	c-0.5-3.9-0.9-7.5-1.4-11c-6.3,0-12.2,0-18.2,0C141.4,53.5,141.4,56.9,141.4,60.7z M79.8,67.6c-5.5,0-10.2,0-14.8,0	c-7.8,0-7.8,0-9.4,8.4c6.9,1.5,13.8,3,21,4.6C77.7,76,78.6,72.2,79.8,67.6z M134.7,49.3c-5.5,0-10.8-0.1-16.1,0.1	c-0.9,0-2.2,1.5-2.4,2.5c-0.5,2.9-0.6,5.8-0.9,8.8c6.7,0,12.9,0,19.3,0C134.7,56.9,134.7,53.4,134.7,49.3z M235,42.9	c-1.9-3.8-3.4-6.9-5.1-9.9c-0.5-0.9-1.6-1.9-2.5-1.9c-5-0.2-10.1-0.1-15.2-0.1c2.7,11.9,2.7,11.9,13.8,11.9	C228.6,42.9,231.2,42.9,235,42.9z M41.8,42.9c5.6,0,10.8,0.1,15.9-0.1c1,0,2.5-0.6,2.8-1.3c1.4-3.2,2.5-6.6,3.7-10.1	C47.6,29.7,46.5,30.3,41.8,42.9z M187.6,31c1,4.2,1.8,7.9,2.7,11.9c3.2,0,6.1,0,9.1,0c2.9,0,5.9,0,8.9,0C205.9,31,205.9,31,194.7,31	C192.7,31,190.7,31,187.6,31z M88.4,31.7c-14.5-3-18.5-0.8-20.3,10.9c1,0.1,1.9,0.2,2.9,0.2c4.8,0,9.6,0,14.8,0	C86.7,39,87.5,35.4,88.4,31.7z M164.2,31c0.3,3.6,0.5,6.5,1,9.4c0.2,0.9,1.5,2.3,2.4,2.3c5.1,0.2,10.2,0.1,15.9,0.1	c-0.9-3.6-1.4-6.7-2.4-9.7c-0.3-0.9-1.7-2-2.7-2.1C173.8,30.9,169.2,31,164.2,31z M110.7,42.7c0.4-4.1,0.8-7.6,1.2-11.2	C96.5,29.1,95.2,29.8,93,41.6c0,0.3,0.2,0.6,0.3,1.1C98.9,42.7,104.5,42.7,110.7,42.7z M158.7,42.6c-0.3-3.2-0.4-6.2-1-9	c-0.2-1-1.8-2.4-2.8-2.5c-4.4-0.3-8.9-0.1-13.5-0.1c0,4.3,0,7.8,0,11.6C147.3,42.6,152.8,42.6,158.7,42.6z M118.6,31.2	c-0.4,4.1-0.8,7.7-1.1,11.3c6.1,0,11.7,0,17,0c0-4,0-7.5,0-11.3C129.2,31.2,124.2,31.2,118.6,31.2z M13.9,42.9	c6.7,0,12,0.1,17.3-0.1c1,0,2.5-0.4,3-1.1c1.9-3.2,3.5-6.6,5.4-10.2C28.3,29.1,21.4,34.9,13.9,42.9z M141.5,12.1c0,4.4,0,8.3,0,12.2	c5.2,0,10,0,15.2,0c-0.6-4.3-1.1-8.2-1.6-12.2C150.3,12.1,146.1,12.1,141.5,12.1z M134.5,24.4c0-4.3,0-8.3,0-12.3	c-4.7,0-8.9,0-13.6,0c-0.4,4.2-0.9,8.1-1.3,12.3C124.9,24.4,129.6,24.4,134.5,24.4z M236.9,31.5c1.3,2.7,2.4,5.2,3.8,7.6	c0.8,1.3,1.9,3.4,3,3.5c5.8,0.3,11.7,0.2,18.9,0.2C254.8,35.1,248.1,28.8,236.9,31.5z M178.7,24.4c-1.7-11.6-5.2-13.9-16.7-11	c0.5,3.6,0.9,7.1,1.4,11C168.6,24.4,173.5,24.4,178.7,24.4z M113.8,13.2c-15-0.7-15.2-1.1-15.9,11.5c2.5,0,5,0,7.4,0s4.8,0,7.3,0	c0.5-3.7,0.9-6.7,1.2-9.6C114,14.5,113.9,13.8,113.8,13.2z M201.7,24.7c-2.1-8.5-8-11.4-18-9.2c0.8,3,1.6,6,2.4,9.2	c1.8,0,3.3,0,4.8,0C194.4,24.7,197.9,24.7,201.7,24.7z M92.3,15.2c-12.2-1.4-16.6,1-17.3,9.5c4.2,0,8.3,0.2,12.5-0.1	c1.1-0.1,2.8-1.2,3.2-2.2C91.5,20.2,91.8,17.7,92.3,15.2z M24.5,61c2-4,3.7-7.4,5.7-11.2c-6.2,0-11.8,0-17.3,0	c-0.2,0.4-0.5,0.9-0.7,1.3C16.1,54.3,20.1,57.5,24.5,61z M246,49.6c2.1,4,3.7,7.2,5.6,10.7c4.4-3.4,8.4-6.4,12.4-9.5	c-0.2-0.4-0.5-0.8-0.7-1.2C257.7,49.6,252.2,49.6,246,49.6z M207.7,18.2c-0.3,0.4-0.6,0.7-0.8,1.1c1.2,1.8,2.2,4.9,3.6,5.1	c4.7,0.6,9.6,0.2,14.4,0.2c0.1-0.7,0.2-1.4,0.3-2.1C219.4,21.1,213.5,19.6,207.7,18.2z M68.6,19c-7.3-0.1-15.3,2.5-17.1,5.4	C69.7,25.1,67.2,25.7,68.6,19z M50.7,68.1c-5.5,0-10.4,0-15.3,0c0,0.3-0.1,0.6-0.1,1c4.4,1.6,8.8,3.1,13.3,4.8	C49.3,71.7,49.9,70.2,50.7,68.1z M240.6,69.2c-0.1-0.4-0.1-0.7-0.2-1.1c-4.7,0-9.4,0-14.7,0c0.6,1.9,1.2,3.6,2,5.8	C232.3,72.3,236.4,70.8,240.6,69.2z" class="st0"/><path d="M184.9,124.5c-0.1-9.3,7-16.5,16.3-16.4c9,0,16.1,7.1,16.2,16.1c0.1,9.1-7.3,16.5-16.4,16.4	C192,140.6,185,133.6,184.9,124.5z" class="st1"/><path d="M141.4,84.8c0-5.7,0-11.1,0-16.8c6.8,0,13.4,0,20.4,0c0.6,5.4,1.3,10.8,2,16.8C156.2,84.8,149,84.8,141.4,84.8z" class="st2"/><path d="M114.3,67.9c7,0,13.5,0,20.3,0c0,5.8,0,11.3,0,17.1c-7.2,0-14.3,0-22.1,0C113.1,79,113.7,73.7,114.3,67.9z" class="st2"/><path d="M170.4,84.4c-0.7-6-1.2-11-1.8-16.5c7.2,0,13.9,0,21,0c1,4.2,2.1,8.4,3.4,13.6	C185.5,82.5,178.3,83.4,170.4,84.4z" class="st2"/><path d="M107.6,67.7c-0.6,5.6-1.2,10.7-1.9,16.6c-7.4-0.8-14.5-1.6-22.4-2.4c1-4.5,1.8-8.5,2.9-12.4	c0.2-0.7,1.7-1.6,2.6-1.6C95,67.6,101.1,67.7,107.6,67.7z" class="st2"/><path d="M32.5,61c4.8-12.7,6.3-13.4,25-11.3c-1.3,3.5-2.4,6.8-3.8,10.1c-0.3,0.6-1.6,1.2-2.4,1.2	C45.2,61.1,39.1,61,32.5,61z" class="st2"/><path d="M218.6,49.3c6.5,0,12.3-0.1,18,0.1c0.9,0,2.1,0.9,2.6,1.8c1.7,3,3.2,6.1,5.1,9.9c-7,0-13.2,0.1-19.5-0.1	c-0.9,0-2.2-0.9-2.6-1.7C220.9,56.3,220,53.1,218.6,49.3z" class="st2"/><path d="M84.1,49.3c-0.8,3.6-1.4,6.7-2.3,9.6c-0.3,0.9-1.8,2-2.8,2C73.1,61.1,67.1,61,60.6,61c1.3-3.7,2.3-6.9,3.6-9.8	c0.4-0.8,1.7-1.8,2.6-1.8C72.4,49.2,78,49.3,84.1,49.3z" class="st2"/><path d="M192.1,49.3c6,0,11.6-0.1,17.2,0.1c1,0,2.4,1.2,2.8,2.1c1.3,2.8,2.2,5.8,3.6,9.5c-6.8,0-12.8,0.1-18.9-0.1	c-0.9,0-2.2-1.4-2.5-2.4C193.4,55.8,192.9,52.8,192.1,49.3z" class="st2"/><path d="M187.8,60.8c-6.8,0-13.2,0-20.2,0c-0.4-3.6-0.8-7.1-1.3-11.5c6,0,11.5-0.1,17,0.1c0.8,0,2,1.2,2.2,2.1	C186.5,54.5,187.1,57.5,187.8,60.8z" class="st2"/><path d="M196.5,67.7c7,0,13.3-0.6,19.5,0.3c2.2,0.3,3.9,4.3,6.6,7.6c-8.6,1.9-15.6,3.4-23,5.1	C198.5,76.1,197.6,72.2,196.5,67.7z" class="st2"/><path d="M91.1,49.6c6.4,0,12.3,0,18.6,0c-0.3,3.3-0.4,6.2-1,9.1c-0.2,0.9-1.6,2.2-2.5,2.2c-5.8,0.2-11.6,0.1-17.9,0.1	C89.3,56.8,90.2,53.1,91.1,49.6z" class="st2"/><path d="M141.4,60.7c0-3.8,0-7.2,0-11c6,0,11.9,0,18.2,0c0.5,3.6,0.9,7.1,1.4,11C154.4,60.7,148.2,60.7,141.4,60.7z" class="st2"/><path d="M79.8,67.6c-1.1,4.6-2,8.4-3.1,12.9c-7.2-1.6-14.2-3.1-21-4.6c1.6-8.4,1.6-8.4,9.4-8.4	C69.6,67.6,74.2,67.6,79.8,67.6z" class="st2"/><path d="M134.7,49.3c0,4.1,0,7.5,0,11.3c-6.4,0-12.6,0-19.3,0c0.3-3,0.3-5.9,0.9-8.8c0.2-1,1.5-2.4,2.4-2.5	C123.9,49.2,129.2,49.3,134.7,49.3z" class="st2"/><path d="M235,42.9c-3.7,0-6.3,0-9,0c-11,0-11,0-13.8-11.9c5.2,0,10.2-0.1,15.2,0.1c0.9,0,2,1,2.5,1.9	C231.6,36,233,39.1,235,42.9z" class="st2"/><path d="M41.8,42.9c4.7-12.6,5.7-13.2,22.5-11.5c-1.3,3.5-2.3,6.9-3.7,10.1c-0.3,0.7-1.9,1.3-2.8,1.3	C52.6,43,47.5,42.9,41.8,42.9z" class="st2"/><path d="M187.6,31c3.1,0,5.1,0,7.1,0c11.2,0,11.2,0,13.6,11.9c-3,0-6,0-8.9,0c-3,0-5.9,0-9.1,0	C189.5,38.8,188.6,35.2,187.6,31z" class="st2"/><path d="M88.4,31.7c-0.9,3.6-1.7,7.3-2.6,11.2c-5.1,0-10,0-14.8,0c-1,0-1.9-0.2-2.9-0.2C69.9,30.9,73.9,28.7,88.4,31.7z" class="st2"/><path d="M164.2,31c5,0,9.6-0.1,14.2,0.1c0.9,0,2.3,1.2,2.7,2.1c1,3,1.6,6.1,2.4,9.7c-5.7,0-10.8,0.1-15.9-0.1	c-0.9,0-2.2-1.4-2.4-2.3C164.7,37.5,164.6,34.6,164.2,31z" class="st2"/><path d="M110.7,42.7c-6.1,0-11.7,0-17.3,0c-0.2-0.5-0.4-0.8-0.3-1.1c2.1-11.8,3.5-12.5,18.9-10.1	C111.5,35.1,111.1,38.6,110.7,42.7z" class="st2"/><path d="M158.7,42.6c-5.9,0-11.4,0-17.3,0c0-3.8,0-7.4,0-11.6c4.6,0,9.1-0.2,13.5,0.1c1,0.1,2.6,1.5,2.8,2.5	C158.4,36.5,158.4,39.5,158.7,42.6z" class="st2"/><path d="M118.6,31.2c5.6,0,10.6,0,15.9,0c0,3.7,0,7.3,0,11.3c-5.3,0-10.9,0-17,0C117.8,38.9,118.2,35.3,118.6,31.2z" class="st2"/><path d="M13.9,42.9c7.5-8,14.4-13.8,25.6-11.4c-1.8,3.6-3.4,7-5.4,10.2c-0.4,0.7-1.9,1.1-3,1.1	C26,42.9,20.7,42.9,13.9,42.9z" class="st2"/><path d="M141.5,12.1c4.6,0,8.9,0,13.6,0c0.5,4,1,7.9,1.6,12.2c-5.2,0-10,0-15.2,0C141.5,20.3,141.5,16.5,141.5,12.1z" class="st2"/><path d="M134.5,24.4c-4.9,0-9.6,0-14.9,0c0.5-4.2,0.9-8.1,1.3-12.3c4.7,0,8.9,0,13.6,0	C134.5,16.1,134.5,20.1,134.5,24.4z" class="st2"/><path d="M236.9,31.5c11.3-2.7,17.9,3.6,25.7,11.3c-7.2,0-13,0.2-18.9-0.2c-1.1-0.1-2.2-2.1-3-3.5	C239.3,36.8,238.2,34.2,236.9,31.5z" class="st2"/><path d="M178.7,24.4c-5.2,0-10.1,0-15.3,0c-0.5-3.8-1-7.4-1.4-11C173.5,10.5,177,12.8,178.7,24.4z" class="st2"/><path d="M113.8,13.2c0,0.6,0.2,1.3,0.1,1.9c-0.4,3-0.8,5.9-1.2,9.6c-2.4,0-4.9,0-7.3,0c-2.5,0-4.9,0-7.4,0	C98.7,12.1,98.8,12.5,113.8,13.2z" class="st2"/><path d="M201.7,24.7c-3.8,0-7.3,0-10.8,0c-1.5,0-3,0-4.8,0c-0.8-3.2-1.6-6.2-2.4-9.2C193.7,13.3,199.6,16.2,201.7,24.7z" class="st2"/><path d="M92.3,15.2c-0.5,2.4-0.8,4.9-1.6,7.1c-0.4,1-2,2.2-3.2,2.2c-4.1,0.3-8.3,0.1-12.5,0.1	C75.7,16.2,80.1,13.9,92.3,15.2z" class="st2"/><path d="M24.5,61c-4.3-3.5-8.3-6.7-12.3-9.9c0.2-0.4,0.5-0.9,0.7-1.3c5.5,0,11,0,17.3,0C28.2,53.5,26.5,57,24.5,61z" class="st2"/><path d="M246,49.6c6.2,0,11.7,0,17.2,0c0.2,0.4,0.5,0.8,0.7,1.2c-4,3.1-8,6.2-12.4,9.5C249.7,56.8,248,53.6,246,49.6z" class="st2"/><path d="M207.7,18.2c5.8,1.5,11.6,2.9,17.5,4.4c-0.1,0.7-0.2,1.4-0.3,2.1c-4.8,0-9.7,0.4-14.4-0.2	c-1.4-0.2-2.4-3.3-3.6-5.1C207.2,18.9,207.4,18.5,207.7,18.2z" class="st2"/><path d="M68.6,19c-1.4,6.7,1,6.2-17.1,5.4C53.3,21.4,61.4,18.9,68.6,19z" class="st2"/><path d="M50.7,68.1c-0.7,2-1.3,3.6-2.1,5.7c-4.5-1.6-8.9-3.2-13.3-4.8c0-0.3,0.1-0.6,0.1-1	C40.3,68.1,45.2,68.1,50.7,68.1z" class="st2"/><path d="M240.6,69.2c-4.1,1.5-8.2,3-12.8,4.7c-0.7-2.2-1.3-3.9-2-5.8c5.3,0,10,0,14.7,0	C240.4,68.5,240.5,68.9,240.6,69.2z" class="st2"/></svg>