<svg xmlns="http://www.w3.org/2000/svg" xmlns:xlink="http://www.w3.org/1999/xlink" id="Layer_1" x="0" y="0" version="1.1" viewBox="0 0 384 384" xml:space="preserve" style="enable-background:new 0 0 384 384"><path d="M353,0H33C15,0,0,13,0,30v321c0,17,15,33,33,33h320c18,0,31-16,31-33V30C384,13,371,0,353,0z M119,320H64V149h55V320z M93,123c-18,0-29-13-29-29c0-17,12-30,30-30s29,13,29,30C123,110,112,123,93,123z M320,320h-55v-93c0-23-8-38-28-38	c-15,0-24,10-28,20c-2,4-2,9-2,14v97h-55V149h55v24c8-12,21-28,50-28c36,0,63,24,63,75V320z"/></svg>