<svg xmlns="http://www.w3.org/2000/svg" viewBox="0 0 512 512"><path d="M256 32A227 227 0 0032 262a229 229 0 00157 218c8 0 12-6 12-11l-1-39-22 2c-44 0-53-33-53-33-11-27-25-34-25-34-20-14 0-14 1-14 23 2 35 24 35 24 11 19 26 25 39 25 11 0 20-4 26-6 2-15 8-25 14-31-50-6-102-25-102-113 0-25 9-46 23-62-2-6-10-29 2-61h5c8 0 27 3 57 24a210 210 0 01112 0c30-21 48-24 57-24h5c12 32 4 55 2 61 14 16 23 37 23 62 0 88-53 107-103 113 8 7 16 21 16 43l-1 63c0 5 3 11 12 11h4c89-31 153-117 153-218 0-127-100-230-224-230z"/></svg>