<svg xmlns="http://www.w3.org/2000/svg" viewBox="0 0 512 512"><path d="M241 304l-46-31h-5l-39 26 93 62v-53c0-2-2-3-3-4zm-46-63l46-31c2-1 3-4 3-6v-51l-93 62 40 26h4zm75-32a4522 4522 0 0047 32h4l40-26-93-63v54l2 3zm-12 21l-5 1-14 9-25 17 39 26h6l39-26-40-27zm-117 7v40l30-20z"/><path d="M256 32a224 224 0 100 448 224 224 0 000-448zm139 265c0 6-3 10-8 13a38020 38020 0 00-123 82c-6 4-11 4-17 0l-122-82c-6-3-8-7-8-13v-80c0-6 3-10 8-14l122-81c6-4 11-4 17 0a41090 41090 0 00124 82c4 3 7 7 7 12v81z"/><path d="M316 273a3826 3826 0 01-45 31c-3 1-3 3-3 6v51l93-62-38-26h-7zm54 4v-40l-30 20z"/></svg>