<?xml version="1.0" encoding="utf-8"?>
<!-- Generator: Adobe Illustrator 24.0.3, SVG Export Plug-In . SVG Version: 6.00 Build 0)  -->
<svg version="1.1" id="b4850822-491f-41e2-90b8-9be7376dfe8f"
	 xmlns="http://www.w3.org/2000/svg" xmlns:xlink="http://www.w3.org/1999/xlink" x="0px" y="0px" viewBox="0 0 738.1 689.2"
	 style="enable-background:new 0 0 738.1 689.2;" xml:space="preserve">
<style type="text/css">
	.st0{fill:#FFDAD2;}
	.st1{fill:#C4CDD5;}
	.st2{fill:#A0616A;}
	.st3{fill:#FDD88D;}
	.st4{fill:#1292EE;}
	.st5{fill:#15284F;}
	.st6{fill:none;stroke:#E5E8EB;stroke-width:2;stroke-miterlimit:10;}
	.st7{fill:#E5E8EB;}
</style>
<title>dev_productivity</title>
<circle class="st0" cx="375.4" cy="118.4" r="73.5"/>
<path class="st0" d="M320.5,155.2c0,0,13.9,104.4-7.5,116.2s126.8,12.8,126.8,12.8s-33-90.6-18.1-118.3L320.5,155.2z"/>
<path class="st1" d="M548.1,284.7l-12.3,56.1l-26,118.7L509,466l-9,75.2l-6,50l-4,33.6c-24.4,12.5-42,21.2-42,21.2s-1.5-7.6-4-17.4
	c-17.1,5.1-48.8,13.6-75.6,15.3c9.8,10.9,14.3,21.1,8.2,28.7c-18.4,22.8-94.3-24.9-120.8-42.7c-0.6,4.3-0.9,8.6-0.7,12.9l-20.3-15.6
	l2-35.9l3.4-60.8l4.3-76.3c-1.3-3.3-2.5-6.6-3.4-10c-6.2-22.1-13.8-66.3-19.6-103.3c-4.7-29.8-8.2-55-8.9-60.4
	c-0.1-0.7-0.1-1.1-0.1-1.1l112.4-49.7c8,18.5,45.3,24.1,45.3,24.1c30.9-2.1,55.1-18.4,55.1-18.4L548.1,284.7z"/>
<path class="st2" d="M456.4,624.6c0,0-4.8,1.6-12.5,3.9c-17.1,5.1-48.8,13.6-75.6,15.3c-23.1,1.5-42.6-2.1-46.2-17.2
	c-1.5-6.5,0.6-11.8,5.4-16.2c14.1-13.1,51-17.8,80.2-19.4c8.3-0.5,15.9-0.7,22.3-0.7c10.8-0.1,17.9,0.1,17.9,0.1l0.2,0.7
	L456.4,624.6z"/>
<path class="st3" d="M314.2,48.8l-13.7-5.5c0,0,28.7-31.7,68.7-28.9L358,2.1c0,0,27.5-11,52.5,17.9c13.1,15.2,28.3,33,37.8,53.2H463
	l-6.1,13.5l21.5,13.5l-22.1-2.4c1.3,7.4,1.5,15,0.6,22.4c-0.9,7.5-4.8,14.3-10.6,19l0,0c0,0-17.1-35.3-17.1-40.8v13.8
	c0,0-13.7-12.4-13.7-20.6l-7.5,9.6L404.2,86L358,101.1l7.5-12.4l-28.7,4.1L348,77.7c0,0-32.5,17.9-33.7,33s-10.8,29.5-10.8,29.5
	S278,69.5,314.2,48.8z"/>
<path class="st1" d="M628,542.6c-7.5,8.1-26,20.3-48.5,33.6c-8.4,4.9-17.3,10-26.4,15c-21.7,12-44.4,24-63.1,33.6
	c-24.4,12.5-42,21.2-42,21.2s-1.5-7.6-4-17.4c-3.3-13-8.2-29.9-13.4-37.4c-0.2-0.3-0.4-0.5-0.5-0.7c-1.5-2-3-3.1-4.5-3.1l74.4-46.1
	l32.2-19.9L509,466.1l-29.1-69.4l17.5-55.8l17.6-56.1h33c0,0,10.9,23.9,24.9,57.2c2.1,5,4.2,10.2,6.5,15.5
	C608.2,427.4,644.1,525.1,628,542.6z"/>
<path class="st2" d="M376.5,672.6c-18.4,22.8-94.3-24.9-120.8-42.7c-5.8-3.9-9.2-6.3-9.2-6.3l24.3-32.4l7.7-10.2c0,0,6.9,3.7,17,9.6
	c0.4,0.2,0.7,0.4,1.1,0.7c8.8,5.2,19.8,11.9,30.9,19.4c15.3,10.4,30.8,22.2,40.8,33.3C378.1,654.8,382.6,665,376.5,672.6z"/>
<path class="st1" d="M295.5,590.5c-2.7,0-5.4,0.2-8.1,0.7c-23,4-29.8,24.8-31.7,38.7c-0.6,4.3-0.9,8.6-0.7,12.9l-20.3-15.6l-7.4-5.7
	c-17.8-6.2-33.7-17.2-47.4-30.2c-11.9-11.5-22.6-24.2-32-37.9c-9.3-13.5-17.5-27.7-24.7-42.4c-4.1-8.3-4.2-18-0.4-26.5l25.1-56
	l36.8-81.9c0.3-1.9,0.6-3.9,0.9-5.7c7.3-41.8,26.8-60.4,26.8-60.4h14.9l10,60.4l12.4,75l-8.7,28.3l-20.1,65.4l19.2,20.8L295.5,590.5
	z"/>
<path class="st4" d="M312.4,415.8l12.8,14.9c4.7-0.9,9.7-2,14.8-3.2l-3.7-11.7l9,10.5c54-13.3,120.9-39.1,120.9-39.1
	s-72.3,5.3-126.2-6.5c-23.9-5.2-48.4,6.6-58.2,29c-5.7,13-4.8,24.3,15.4,24.3c6.8-0.1,13.6-0.8,20.4-1.9L312.4,415.8z"/>
<path class="st5" d="M603.2,660.4v6.1c0,1.7-0.3,3.3-0.9,4.9c-0.3,0.7-0.6,1.4-1,2c-2.4,4.1-6.8,6.6-11.5,6.6H143.2
	c-4.7,0-9.1-2.5-11.5-6.6c-0.4-0.6-0.7-1.3-1-2c-0.6-1.6-0.9-3.2-0.9-4.9v-6.1c0-7.4,6-13.4,13.4-13.4l0,0h25.7v-2.8
	c0-0.3,0.2-0.6,0.6-0.6l0,0h13.4c0.3,0,0.6,0.2,0.6,0.6l0,0v2.8h8.4v-2.8c0-0.3,0.2-0.6,0.6-0.6l0,0h13.4c0.3,0,0.6,0.2,0.6,0.6l0,0
	v2.8h8.4v-2.8c0-0.3,0.2-0.6,0.6-0.6l0,0h13.4c0.3,0,0.6,0.2,0.6,0.6l0,0v2.8h8.4v-2.8c0-0.3,0.2-0.6,0.6-0.6l0,0h13.4
	c0.3,0,0.6,0.2,0.6,0.6l0,0v2.8h8.4v-2.8c0-0.3,0.2-0.6,0.6-0.6l0,0h13.4c0.3,0,0.6,0.2,0.6,0.6l0,0v2.8h8.4v-2.8
	c0-0.3,0.2-0.6,0.6-0.6l0,0h13.4c0.3,0,0.6,0.2,0.6,0.6l0,0v2.8h8.4v-2.8c0-0.3,0.2-0.6,0.6-0.6l0,0h105.2c0.3,0,0.6,0.2,0.6,0.6
	l0,0v2.8h8.4v-2.8c0-0.3,0.2-0.6,0.6-0.6l0,0h13.4c0.3,0,0.6,0.3,0.6,0.6v2.8h8.4v-2.8c0-0.3,0.2-0.6,0.6-0.6l0,0h13.4
	c0.3,0,0.6,0.2,0.6,0.6l0,0v2.8h8.4v-2.8c0-0.3,0.2-0.6,0.6-0.6l0,0h13.4c0.3,0,0.6,0.2,0.6,0.6l0,0v2.8h8.4v-2.8
	c0-0.3,0.2-0.6,0.6-0.6l0,0h13.4c0.3,0,0.6,0.3,0.5,0.6v2.8h8.4v-2.8c0-0.3,0.2-0.6,0.6-0.6l0,0h13.4c0.3,0,0.6,0.2,0.6,0.6l0,0v2.8
	h8.4v-2.8c0-0.3,0.2-0.6,0.6-0.6l0,0H550c0.3,0,0.6,0.2,0.6,0.6l0,0v2.8h39.2C597.1,647,603.1,653,603.2,660.4L603.2,660.4z"/>
<rect y="671.3" class="st5" width="733" height="2"/>
<path class="st5" d="M567.2,404.8H400.8v-3.4h-75.5v3.4H158.2c-6.2,0-11.3,5-11.3,11.3l0,0V644c0,6.2,5,11.3,11.3,11.3h409
	c6.2,0,11.3-5,11.3-11.3V416C578.5,409.8,573.4,404.8,567.2,404.8z"/>
<circle class="st6" cx="363" cy="484.3" r="25"/>
<circle class="st7" cx="355" cy="493.3" r="25"/>
<rect x="19.9" y="661.2" class="st1" width="28" height="28"/>
<path class="st5" d="M30.9,639.2v34h34v-34H30.9z M63.5,671.7h-31v-31h31V671.7z"/>
<rect x="667.9" y="661.2" class="st1" width="28" height="28"/>
<path class="st5" d="M678.9,639.2v34h34v-34H678.9z M711.5,671.7h-31v-31h31V671.7z"/>
<path class="st1" d="M90.1,599.8c0.9,32-17.7,43.7-41.2,44.3c-0.5,0-1.1,0-1.6,0c-1.1,0-2.2,0-3.2-0.1c-21.2-0.9-38-12.1-38.8-41.8
	c-0.9-30.7,37.3-70.7,40.1-73.7l0,0c0.1-0.1,0.2-0.2,0.2-0.2S89.2,567.8,90.1,599.8z"/>
<path class="st5" d="M47.2,639.3l14.9-22.1l-14.9,24.5v2.5c-1.1,0-2.2,0-3.2-0.1l0.7-32v-0.2l0,0l0.1-3l-16.3-23.7l16.3,21.4
	l0.1,0.6l0.6-24.2l-14.1-24.5l14.1,20.3l-0.1-50.1v-0.2v0.2l0.9,39.5l12.8-16l-12.8,19.4l0.3,21.6L58.4,572l-11.8,24.3l0.2,12
	L64,578.9l-17.1,33.6L47.2,639.3z"/>
<path class="st1" d="M738.1,599.8c0.9,32-17.7,43.7-41.2,44.3c-0.5,0-1.1,0-1.6,0c-1.1,0-2.2,0-3.2-0.1c-21.2-0.9-38-12.1-38.8-41.8
	c-0.9-30.7,37.3-70.7,40.1-73.7l0,0c0.1-0.1,0.2-0.2,0.2-0.2S737.2,567.8,738.1,599.8z"/>
<path class="st5" d="M695.2,639.3l14.9-22.1l-14.9,24.5v2.5c-1.1,0-2.2,0-3.2-0.1l0.7-32v-0.2l0,0l0.1-3l-16.3-23.7l16.3,21.4
	l0.1,0.6l0.6-24.2l-14.1-24.5l14.1,20.3l-0.1-50.1v-0.2v0.2l0.9,39.5l12.8-16l-12.8,19.4l0.3,21.6l11.8-21.1l-11.8,24.3l0.2,12
	L712,579l-17.1,33.6L695.2,639.3z"/>
</svg>
